<svg width="170" height="16" viewBox="0 0 170 16" fill="none" xmlns="http://www.w3.org/2000/svg">
<path d="M0 15.1012V0.898787C0 0.785345 0.0387364 0.688504 0.118976 0.608264C0.196449 0.530792 0.293289 0.489288 0.409498 0.489288H2.40442C2.51786 0.489288 2.6147 0.533558 2.69494 0.619331C2.77242 0.705104 2.81392 0.799179 2.81392 0.898787V6.58473H9.8086V0.898787C9.8086 0.785345 9.84733 0.688504 9.92757 0.608264C10.0078 0.528025 10.1019 0.489288 10.2181 0.489288H12.1909C12.3043 0.489288 12.4012 0.533558 12.4814 0.619331C12.5589 0.705104 12.6004 0.799179 12.6004 0.898787V15.1012C12.6004 15.2146 12.5589 15.3115 12.4703 15.3917C12.3846 15.4692 12.2905 15.5107 12.1909 15.5107H10.2181C10.1047 15.5107 10.0078 15.4664 9.92757 15.3806C9.8501 15.2949 9.8086 15.2008 9.8086 15.1012V9.1607H2.81392V15.1012C2.81392 15.2174 2.77518 15.3142 2.69494 15.3917C2.61747 15.472 2.52063 15.5107 2.40442 15.5107H0.409498C0.296056 15.5107 0.199216 15.472 0.118976 15.3917C0.0387364 15.3142 0 15.2174 0 15.1012Z" fill="white"/>
<path d="M19.0888 15.1012V8.28082L14.1969 1.11736C14.1527 1.05926 14.1333 0.981783 14.1333 0.882175C14.1333 0.768733 14.1693 0.674659 14.2412 0.60272C14.3131 0.530781 14.4128 0.494812 14.5428 0.494812H16.7314C16.8614 0.494812 16.9749 0.558449 17.0745 0.688493L20.5054 5.62184L23.9391 0.688493C24.0387 0.558449 24.1549 0.494812 24.2822 0.494812H26.493C26.623 0.494812 26.7226 0.530781 26.7946 0.60272C26.8665 0.674659 26.9025 0.765966 26.9025 0.882175C26.9025 0.967948 26.8803 1.04542 26.8388 1.11736L21.8833 8.26145V15.1039C21.8833 15.2174 21.8446 15.3142 21.7644 15.3945C21.6841 15.4747 21.5901 15.5134 21.4738 15.5134H19.5011C19.3876 15.5134 19.2908 15.4747 19.2105 15.3945C19.1331 15.317 19.0916 15.2202 19.0916 15.1039L19.0888 15.1012Z" fill="white"/>
<path d="M28.4436 15.1012V0.898787C28.4436 0.785345 28.4823 0.688504 28.5626 0.608264C28.6401 0.530792 28.7369 0.489288 28.8531 0.489288H33.8944C35.2086 0.489288 36.3403 0.954125 37.2838 1.8838C38.2273 2.81347 38.7004 3.92852 38.7004 5.22896C38.7004 6.52939 38.2328 7.69702 37.2949 8.64052C36.3569 9.58403 35.2308 10.0572 33.9165 10.0572H31.2354V15.0984C31.2354 15.2119 31.1966 15.3087 31.1164 15.3889C31.0389 15.4664 30.9421 15.5079 30.8259 15.5079H28.8531C28.7397 15.5079 28.6428 15.4692 28.5626 15.3889C28.4823 15.3115 28.4436 15.2146 28.4436 15.0984V15.1012ZM31.2326 7.44246H33.8058C34.4062 7.44246 34.9098 7.22664 35.3193 6.79778C35.726 6.36891 35.9308 5.84044 35.9308 5.20959C35.9308 4.62301 35.726 4.13051 35.3193 3.72931C34.9126 3.32811 34.4062 3.12889 33.8058 3.12889H31.2326V7.4397V7.44246Z" fill="white"/>
<path d="M40.6289 15.1012V0.898787C40.6289 0.785345 40.6676 0.688504 40.7479 0.608264C40.8254 0.530792 40.9222 0.489288 41.0384 0.489288H49.7679C49.8814 0.489288 49.9782 0.533558 50.0584 0.619331C50.1359 0.705104 50.1774 0.799179 50.1774 0.898787V2.65852C50.1774 2.77197 50.1387 2.86881 50.0584 2.94905C49.9782 3.02652 49.8841 3.06802 49.7679 3.06802H43.4179V6.60686H48.7165C48.8299 6.60686 48.9268 6.64837 49.007 6.73414C49.0845 6.81991 49.126 6.91122 49.126 7.01083V8.7761C49.126 8.88954 49.0873 8.98638 49.007 9.06386C48.9296 9.14133 48.8327 9.18006 48.7165 9.18006H43.4179V12.9347H49.7679C49.8814 12.9347 49.9782 12.979 50.0584 13.0648C50.1359 13.1505 50.1774 13.2446 50.1774 13.3442V15.104C50.1774 15.2174 50.1387 15.3142 50.0584 15.3945C49.9782 15.472 49.8841 15.5135 49.7679 15.5135H41.0384C40.925 15.5135 40.8281 15.4747 40.7479 15.3945C40.6676 15.317 40.6289 15.2202 40.6289 15.104V15.1012Z" fill="white"/>
<path d="M52.4129 15.1012V0.898787C52.4129 0.785345 52.4517 0.688504 52.5319 0.608264C52.6094 0.530792 52.7062 0.489288 52.8224 0.489288H58.9566C60.2432 0.489288 61.3444 0.940289 62.2603 1.83953C63.1761 2.74153 63.6326 3.82891 63.6326 5.09891C63.6326 6.07286 63.3421 6.94166 62.7638 7.70532C62.1855 8.47174 61.4164 9.04725 60.459 9.43185L63.3974 14.8798C63.4417 14.9379 63.4611 15.0099 63.4611 15.0957C63.4611 15.2091 63.4251 15.3059 63.3532 15.3862C63.2812 15.4637 63.1733 15.5052 63.0322 15.5052H60.78C60.6084 15.5052 60.495 15.4415 60.4369 15.3115L57.5842 9.62553H55.2019V15.0957C55.2019 15.2091 55.1632 15.3059 55.083 15.3862C55.0055 15.4637 54.9087 15.5052 54.7924 15.5052H52.8197C52.7062 15.5052 52.6094 15.4664 52.5291 15.3862C52.4489 15.3087 52.4102 15.2119 52.4102 15.0957L52.4129 15.1012ZM55.2241 7.33455H58.7214C59.2942 7.33455 59.7894 7.11874 60.2128 6.68987C60.6333 6.261 60.8464 5.74637 60.8464 5.14595C60.8464 4.54554 60.6361 4.08347 60.2128 3.67674C59.7894 3.27 59.2942 3.06525 58.7214 3.06525H55.2241V7.33455Z" fill="white"/>
<path d="M72.8881 0.276245C73.9451 0.276245 74.8858 0.439491 75.7104 0.76875C76.5321 1.09801 77.3234 1.59881 78.0816 2.27117C78.1812 2.35694 78.231 2.45655 78.231 2.57276C78.231 2.68897 78.1867 2.78857 78.1009 2.87435L76.7922 4.22459C76.6207 4.39613 76.4408 4.39613 76.2554 4.22459C75.8266 3.83722 75.3175 3.5301 74.7309 3.30321C74.1443 3.07356 73.5522 2.96012 72.949 2.96012C71.6043 2.96012 70.4699 3.44986 69.5485 4.42933C68.6271 5.40881 68.1651 6.58474 68.1651 7.95711C68.1651 8.84528 68.3726 9.66704 68.7876 10.4252C69.2027 11.1833 69.7782 11.7865 70.5141 12.2375C71.2501 12.6885 72.0691 12.9126 72.9711 12.9126C74.1443 12.9126 75.2372 12.5059 76.2527 11.6896C76.4519 11.5319 76.6317 11.5319 76.7894 11.6896L78.1203 13.062C78.1922 13.1339 78.2282 13.2197 78.2282 13.3193C78.2282 13.4494 78.1839 13.5545 78.0982 13.6403C76.6677 15.0265 74.9301 15.721 72.8854 15.721C71.4826 15.721 70.1849 15.3779 68.9924 14.6917C67.7971 14.0055 66.8591 13.0758 66.1701 11.9027C65.484 10.7295 65.1409 9.43463 65.1409 8.02075C65.1409 6.60687 65.484 5.30367 66.1701 4.11668C66.8563 2.92969 67.7943 1.99171 68.9813 1.30553C70.1683 0.619339 71.4687 0.276245 72.8854 0.276245H72.8881Z" fill="white"/>
<path d="M79.8606 11.9027C79.1744 10.7295 78.8313 9.43463 78.8313 8.02075C78.8313 6.60687 79.1744 5.30367 79.8606 4.11668C80.5468 2.92969 81.4764 1.99171 82.6496 1.30553C83.8228 0.619339 85.1177 0.276245 86.5315 0.276245C87.9454 0.276245 89.2458 0.619339 90.4245 1.30553C91.6032 1.99171 92.5384 2.92969 93.2246 4.11668C93.9108 5.30367 94.2539 6.6041 94.2539 8.02075C94.2539 9.43739 93.9108 10.7323 93.2246 11.9027C92.5384 13.0758 91.606 14.0055 90.4245 14.6917C89.2458 15.3779 87.9482 15.721 86.5315 15.721C85.1149 15.721 83.82 15.3779 82.6496 14.6917C81.4764 14.0055 80.5468 13.0758 79.8606 11.9027ZM81.6203 8.02075C81.6203 9.36545 82.099 10.5192 83.0563 11.4849C84.0137 12.4505 85.173 12.932 86.5315 12.932C87.4169 12.932 88.2415 12.7106 88.9996 12.2679C89.7577 11.8252 90.3581 11.2276 90.8008 10.4777C91.2435 9.72791 91.4649 8.90892 91.4649 8.02075C91.4649 7.13258 91.2435 6.30805 90.8008 5.54162C90.3581 4.77796 89.7577 4.17202 88.9996 3.72931C88.2415 3.28661 87.4197 3.06526 86.5315 3.06526C85.6434 3.06526 84.8271 3.28661 84.0745 3.72931C83.3247 4.17202 82.7271 4.77796 82.2844 5.54162C81.8417 6.30805 81.6203 7.13258 81.6203 8.02075Z" fill="white"/>
<path d="M96.1436 15.1012V0.663608C96.1436 0.550166 96.1823 0.456092 96.2625 0.384153C96.34 0.312214 96.4368 0.276245 96.5531 0.276245H96.874C97.0179 0.276245 97.1396 0.326049 97.2392 0.425657L105.991 9.75835H106.032V0.898794C106.032 0.785351 106.071 0.688511 106.151 0.608271C106.229 0.530798 106.326 0.489295 106.442 0.489295H108.415C108.528 0.489295 108.625 0.533565 108.705 0.619338C108.783 0.705111 108.824 0.799186 108.824 0.898794V15.3364C108.824 15.4498 108.78 15.5439 108.694 15.6158C108.608 15.6878 108.514 15.7237 108.415 15.7237H108.113C107.969 15.7237 107.847 15.6739 107.748 15.5743L98.9519 5.87918H98.9077V15.104C98.9077 15.2174 98.8689 15.3143 98.7887 15.3945C98.7112 15.472 98.6144 15.5135 98.4982 15.5135H96.5448C96.4313 15.5135 96.3345 15.4747 96.2542 15.3945C96.174 15.317 96.1353 15.2202 96.1353 15.104L96.1436 15.1012Z" fill="white"/>
<path d="M111.06 15.1012V0.663608C111.06 0.550166 111.099 0.456092 111.179 0.384153C111.256 0.312214 111.353 0.276245 111.469 0.276245H111.79C111.934 0.276245 112.056 0.326049 112.155 0.425657L120.907 9.75835H120.949V0.898794C120.949 0.785351 120.987 0.688511 121.068 0.608271C121.145 0.530798 121.242 0.489295 121.358 0.489295H123.331C123.444 0.489295 123.541 0.533565 123.621 0.619338C123.699 0.705111 123.74 0.799186 123.74 0.898794V15.3364C123.74 15.4498 123.696 15.5439 123.61 15.6158C123.525 15.6878 123.431 15.7237 123.331 15.7237H123.029C122.885 15.7237 122.764 15.6739 122.664 15.5743L113.868 5.87918H113.824V15.104C113.824 15.2174 113.785 15.3143 113.705 15.3945C113.627 15.472 113.531 15.5135 113.414 15.5135H111.461C111.348 15.5135 111.251 15.4747 111.17 15.3945C111.09 15.317 111.052 15.2202 111.052 15.104L111.06 15.1012Z" fill="white"/>
<path d="M125.976 15.1012V0.898787C125.976 0.785345 126.015 0.688504 126.095 0.608264C126.173 0.530792 126.269 0.489288 126.386 0.489288H135.115C135.229 0.489288 135.325 0.533558 135.406 0.619331C135.483 0.705104 135.525 0.799179 135.525 0.898787V2.65852C135.525 2.77197 135.486 2.86881 135.406 2.94905C135.325 3.02652 135.231 3.06802 135.115 3.06802H128.765V6.60686H134.064C134.177 6.60686 134.274 6.64837 134.354 6.73414C134.432 6.81991 134.473 6.91122 134.473 7.01083V8.7761C134.473 8.88954 134.434 8.98638 134.354 9.06386C134.277 9.14133 134.18 9.18006 134.064 9.18006H128.765V12.9347H135.115C135.229 12.9347 135.325 12.979 135.406 13.0648C135.483 13.1505 135.525 13.2446 135.525 13.3442V15.104C135.525 15.2174 135.486 15.3142 135.406 15.3945C135.325 15.472 135.231 15.5135 135.115 15.5135H126.386C126.272 15.5135 126.175 15.4747 126.095 15.3945C126.015 15.317 125.976 15.2202 125.976 15.104V15.1012Z" fill="white"/>
<path d="M144.185 0.276245C145.242 0.276245 146.183 0.439491 147.007 0.76875C147.829 1.09801 148.62 1.59881 149.378 2.27117C149.478 2.35694 149.528 2.45655 149.528 2.57276C149.528 2.68897 149.484 2.78857 149.398 2.87435L148.089 4.22459C147.918 4.39613 147.738 4.39613 147.552 4.22459C147.123 3.83722 146.614 3.5301 146.028 3.30321C145.441 3.07356 144.849 2.96012 144.246 2.96012C142.901 2.96012 141.767 3.44986 140.845 4.42933C139.924 5.40881 139.462 6.58474 139.462 7.95711C139.462 8.84528 139.669 9.66704 140.084 10.4252C140.5 11.1833 141.075 11.7865 141.811 12.2375C142.547 12.6885 143.366 12.9126 144.268 12.9126C145.441 12.9126 146.534 12.5059 147.55 11.6896C147.749 11.5319 147.929 11.5319 148.086 11.6896L149.417 13.062C149.489 13.1339 149.525 13.2197 149.525 13.3193C149.525 13.4494 149.481 13.5545 149.395 13.6403C147.965 15.0265 146.227 15.721 144.182 15.721C142.779 15.721 141.482 15.3779 140.289 14.6917C139.094 14.0055 138.156 13.0758 137.467 11.9027C136.781 10.7295 136.438 9.43463 136.438 8.02075C136.438 6.60687 136.781 5.30367 137.467 4.11668C138.153 2.92969 139.091 1.99171 140.278 1.30553C141.465 0.619339 142.766 0.276245 144.182 0.276245H144.185Z" fill="white"/>
<path d="M154.633 15.1012V3.06802H151.351C151.238 3.06802 151.141 3.02375 151.061 2.93798C150.983 2.85221 150.942 2.75813 150.942 2.65852V0.898787C150.942 0.785345 150.98 0.688504 151.061 0.608264C151.141 0.528025 151.235 0.489288 151.351 0.489288H160.725C160.839 0.489288 160.936 0.533558 161.016 0.619331C161.093 0.705104 161.135 0.799179 161.135 0.898787V2.65852C161.135 2.77197 161.096 2.86881 161.016 2.94905C160.938 3.02652 160.842 3.06802 160.725 3.06802H157.444V15.1012C157.444 15.2146 157.405 15.3115 157.325 15.3917C157.245 15.4692 157.151 15.5107 157.034 15.5107H155.039C154.926 15.5107 154.829 15.472 154.749 15.3917C154.671 15.3142 154.63 15.2174 154.63 15.1012H154.633Z" fill="white"/>
<path d="M162.576 5.64676C162.375 5.16809 162.275 4.66452 162.275 4.14435C162.275 3.62417 162.377 3.12337 162.582 2.6447C162.787 2.16879 163.061 1.75653 163.404 1.41067C163.747 1.06204 164.156 0.788118 164.632 0.583369C165.108 0.37862 165.609 0.276245 166.132 0.276245C166.655 0.276245 167.153 0.381387 167.632 0.588903C168.107 0.796419 168.517 1.07311 168.86 1.4162C169.203 1.75929 169.48 2.16879 169.687 2.6447C169.895 3.1206 170 3.62141 170 4.14435C170 4.66729 169.898 5.16533 169.693 5.644C169.488 6.1199 169.214 6.5294 168.866 6.87249C168.517 7.21559 168.107 7.48951 167.632 7.69426C167.156 7.89901 166.655 8.00138 166.132 8.00138C165.609 8.00138 165.111 7.89901 164.632 7.69426C164.156 7.48951 163.747 7.21559 163.404 6.87249C163.061 6.5294 162.784 6.1199 162.576 5.64676ZM169.151 4.14435C169.151 3.59374 169.015 3.0874 168.747 2.62533C168.478 2.16326 168.113 1.79803 167.651 1.52964C167.189 1.26125 166.683 1.12568 166.132 1.12568C165.581 1.12568 165.083 1.26125 164.618 1.52964C164.154 1.79803 163.786 2.16603 163.517 2.63086C163.249 3.0957 163.113 3.60204 163.113 4.14435C163.113 4.68666 163.249 5.193 163.517 5.65783C163.786 6.12267 164.154 6.49066 164.618 6.75905C165.083 7.02744 165.59 7.16302 166.132 7.16302C166.674 7.16302 167.181 7.02744 167.645 6.75905C168.11 6.49066 168.478 6.12267 168.747 5.65783C169.015 5.193 169.151 4.68666 169.151 4.14435ZM164.693 5.89578V2.37354C164.693 2.31544 164.713 2.2684 164.751 2.22966C164.79 2.19093 164.84 2.17156 164.895 2.17156H166.561C166.918 2.17156 167.228 2.2933 167.49 2.53679C167.751 2.78027 167.883 3.10123 167.883 3.50243C167.883 4.04751 167.629 4.44317 167.12 4.69496L167.615 5.81278C167.629 5.85705 167.637 5.88748 167.637 5.90962C167.637 5.96772 167.618 6.01476 167.579 6.04796C167.54 6.08393 167.49 6.10053 167.435 6.10053H166.854C166.768 6.10053 166.705 6.05073 166.66 5.95112L166.187 4.74753H165.628V5.89578C165.628 5.95389 165.609 6.00092 165.57 6.03966C165.532 6.0784 165.482 6.09776 165.426 6.09776H164.901C164.843 6.09776 164.796 6.0784 164.757 6.03966C164.718 6.00092 164.699 5.95112 164.699 5.89578H164.693ZM165.595 3.95067H166.445C166.575 3.95067 166.68 3.90639 166.76 3.82062C166.843 3.73485 166.885 3.62971 166.885 3.50796C166.885 3.37792 166.843 3.27278 166.76 3.19254C166.677 3.10953 166.572 3.06803 166.445 3.06803H165.595V3.9479V3.95067Z" fill="white"/>
</svg>
