<svg width="114" height="18" viewBox="0 0 114 18" fill="none" xmlns="http://www.w3.org/2000/svg">
<rect width="114" height="18" rx="4" fill="#444444"/>
<path fill-rule="evenodd" clip-rule="evenodd" d="M9.85227 5.76032C10.318 5.77096 10.6359 5.42145 10.6769 4.98357C10.7181 4.5457 10.4851 4.01057 10.0203 4.00015C9.55542 3.98973 9.21898 4.51292 9.17799 4.95123C9.137 5.38953 9.38649 5.74969 9.85227 5.76032ZM16.5441 12.1363C17.048 13.3405 17.9958 14.0001 19.1919 14.0001C19.3648 13.9997 19.5373 13.9867 19.7079 13.9612C21.7859 13.6536 24.2085 11.3924 24.3445 8.82678C24.3725 8.31706 24.1183 8.08281 23.9013 7.97622C23.3984 7.72918 22.9608 8.02815 22.4547 8.37394L22.4493 8.37762L22.4482 8.37838C21.6132 8.95102 20.0754 10.0057 17.7911 9.81042C17.9635 9.03302 18.3598 8.19961 18.9519 7.42243C19.841 6.25448 20.9827 5.47643 21.8026 5.47643H21.8262C22.2498 5.48424 22.5704 5.70459 22.7064 6.08081C22.7662 6.24657 22.8951 6.38363 23.0646 6.46184C23.2341 6.54004 23.4305 6.55299 23.6103 6.49784C23.7902 6.44268 23.939 6.32393 24.0239 6.16772C24.1087 6.0115 24.1228 5.83062 24.0629 5.66486C23.7347 4.75547 22.8887 4.17844 21.8551 4.15912C20.5372 4.13546 18.9771 5.09478 17.7809 6.66543C17.1955 7.43393 16.6661 8.41561 16.4145 9.44202C15.6968 9.08925 15.1215 8.50462 14.7856 7.75761C14.6572 7.47236 14.3931 7.29434 14.0788 7.28153C13.4884 7.2583 13.2339 7.70334 12.7304 8.59124L12.7288 8.59414C12.347 9.26728 11.8287 10.1812 11.2841 10.6506C11.1463 10.5524 10.8796 10.2396 10.6617 9.64283C10.3867 8.88996 10.2936 8.00857 10.3994 7.16192C10.4758 6.55233 10.0376 6.31483 9.76638 6.27011C9.24807 6.18457 8.87346 6.57621 8.53444 6.98455C8.26044 7.31453 7.93272 7.77324 7.61255 8.27516C7.24548 8.85284 6.3554 10.3317 6.02038 11.5966C5.97542 11.7665 6.00553 11.9458 6.10408 12.0952C6.20263 12.2446 6.36155 12.3518 6.54588 12.3933C6.73021 12.4347 6.92484 12.4069 7.08697 12.3161C7.2491 12.2253 7.36545 12.0789 7.4104 11.909C7.67357 10.9167 8.37376 9.65498 8.98372 8.72974C9.17032 10.1819 9.8069 11.4317 10.6713 11.8463C11.1868 12.0936 11.7553 12.0278 12.1921 11.6707C12.9488 11.0515 13.555 9.98279 13.9977 9.20127C14.0013 9.19497 14.0048 9.18867 14.0086 9.18238C14.5646 9.92596 15.3498 10.4989 16.2628 10.8271C16.2769 11.2749 16.372 11.7173 16.5441 12.1363ZM17.8785 11.6635C17.8073 11.4905 17.757 11.3107 17.7286 11.1275C19.9612 11.2997 21.6049 10.5129 22.6402 9.87164C22.098 11.1609 20.8345 12.46 19.4805 12.6604C18.7297 12.7707 18.205 12.445 17.8785 11.6635ZM55.6906 9.44503H57.3695V10.4169C57.0561 10.7814 56.4603 11.0074 55.8105 11.0074C54.4876 11.0074 53.4899 10.1095 53.4899 8.91924C53.4899 7.72893 54.4876 6.83105 55.8105 6.83105C56.4049 6.83105 56.8707 7.00038 57.2736 7.36422L57.3035 7.39114L57.8435 6.88575L57.8159 6.8584C57.311 6.36083 56.6181 6.10857 55.7561 6.10857C54.9474 6.10937 54.172 6.40575 53.6002 6.93268C53.0283 7.45961 52.7067 8.17405 52.7058 8.91924C52.7058 10.469 54.0742 11.7297 55.7561 11.7297C56.7494 11.7297 57.5528 11.3852 58.1444 10.7055L58.1535 10.6948V8.72256H55.6906V9.44503ZM60.8264 7.40495C60.4335 7.40495 60.0478 7.61162 59.8348 7.83262V7.59121H59.0507V11.5366H59.8348V9.13407C59.8348 8.51471 60.2075 8.13546 60.6165 8.13546C60.9607 8.13546 61.0856 8.23836 61.2178 8.34755L61.2578 8.38033L61.6819 7.65569L61.6529 7.6355C61.3754 7.44337 61.1306 7.40495 60.8264 7.40495ZM62.6764 7.76258C63.063 7.52458 63.5176 7.39758 63.9825 7.39762C64.6057 7.39831 65.2032 7.62676 65.6439 8.03284C66.0845 8.43893 66.3324 8.98949 66.3331 9.56375C66.3331 9.99218 66.1952 10.411 65.9369 10.7672C65.6786 11.1234 65.3114 11.4011 64.8818 11.565C64.4523 11.729 63.9796 11.7718 63.5236 11.6882C63.0676 11.6046 62.6487 11.3983 62.3199 11.0954C61.9912 10.7924 61.7673 10.4064 61.6766 9.98621C61.586 9.56601 61.6325 9.13047 61.8105 8.73466C61.9885 8.33886 62.2898 8.00057 62.6764 7.76258ZM63.112 10.7642C63.3697 10.9228 63.6726 11.0074 63.9825 11.0074C64.3979 11.0069 64.7961 10.8547 65.0897 10.584C65.3834 10.3134 65.5486 9.94647 65.549 9.56375C65.549 9.27822 65.4571 8.99909 65.285 8.76168C65.1128 8.52427 64.8681 8.33923 64.5818 8.22997C64.2955 8.12071 63.9805 8.09213 63.6765 8.14786C63.3726 8.20358 63.0935 8.34109 62.8744 8.54301C62.6553 8.74493 62.5061 9.00219 62.4456 9.28224C62.3852 9.5623 62.4163 9.85258 62.5349 10.1164C62.6535 10.3802 62.8544 10.6056 63.112 10.7642ZM70.0913 9.93591C70.0913 10.6347 69.4597 10.9997 68.8356 10.9997C68.0689 10.9997 67.7118 10.6206 67.7118 9.80566V7.5909H66.9279V9.77136C66.9279 11.0843 67.557 11.7226 68.8511 11.7226C69.3037 11.7226 69.838 11.5033 70.0913 11.2821V11.5363H70.8754V7.5909H70.0913V9.93591ZM72.486 7.87066C72.7345 7.6234 73.2385 7.39762 73.8275 7.39762C75.0658 7.39762 75.9994 8.33502 75.9999 9.57808C75.9999 10.8409 75.1035 11.7227 73.8199 11.7227C73.3332 11.7227 72.7373 11.4976 72.4864 11.2838V13.2124H71.7019V7.59105H72.486V7.87066ZM73.843 11.0013C74.5039 11.0013 75.2154 10.5496 75.2154 9.55767C75.2154 8.96024 74.7896 8.1201 73.843 8.12119C72.9932 8.12119 72.486 8.65827 72.486 9.55767C72.486 10.8973 73.5247 11.0013 73.843 11.0013ZM34.3638 6.29696H33.5986L31.9223 10.4011L30.2491 6.32192L30.2387 6.29696H29.4735L28.4239 11.4943L28.4147 11.5403H29.217L29.9973 7.77057L31.5326 11.5152L31.5428 11.5403H32.3021L33.8403 7.77057L34.6284 11.5403H35.4228L34.3638 6.29696ZM35.9951 10.339C35.9951 9.39529 36.9156 8.97283 37.8281 8.97283C38.2388 8.9742 38.649 9.00286 39.0553 9.05858L39.126 9.06727C39.0268 8.42251 38.6322 8.09687 37.9527 8.09687C37.2388 8.09687 36.7961 8.35347 36.639 8.46202L36.6018 8.48807L36.2149 7.90496L36.2448 7.88326C36.716 7.54633 37.407 7.39437 37.8827 7.39437C38.7033 7.39437 39.265 7.62535 39.6 8.101C39.9157 8.54451 39.9802 9.16452 39.9802 9.95864V11.5401H39.195V11.1094C38.9464 11.3971 38.394 11.7338 37.727 11.7338C36.7071 11.7338 35.9951 11.1605 35.9951 10.339ZM39.1877 9.77607C38.7026 9.72633 38.2151 9.69974 37.727 9.6964C37.2951 9.6964 36.7879 9.85357 36.7808 10.2964C36.7891 10.743 37.1399 11.0102 37.7197 11.0102C38.5853 11.0102 39.171 10.5157 39.1877 9.77607ZM42.6518 10.8687C42.3361 10.9588 42.1359 10.9644 42.0223 10.8871C41.9326 10.8264 41.8892 10.708 41.8892 10.5259V8.31158H42.7456V7.58846H41.8892V6.29698H41.1047V7.58846H40.5439V8.31202H41.1047V10.5402C41.1047 11.0276 41.2762 11.401 41.5876 11.5912C41.7519 11.6887 41.944 11.7388 42.1394 11.7351C42.3514 11.7351 42.5854 11.6858 42.8375 11.5877L42.8698 11.5749L42.6966 10.8561L42.6518 10.8687ZM46.825 8.64741C46.5435 8.29638 46.1646 8.11815 45.6991 8.11815C44.7732 8.11815 44.0751 8.73968 44.0749 9.56527C44.0749 10.3626 44.8036 11.0113 45.6988 11.0113C46.1651 11.0113 46.542 10.8331 46.8248 10.4818L46.8483 10.4527L47.5031 10.8309L47.4781 10.8646C47.0323 11.4585 46.4532 11.7349 45.6522 11.7349C44.3498 11.7349 43.2896 10.7627 43.2896 9.56527C43.2896 8.3678 44.3493 7.39437 45.6522 7.39437C46.452 7.39437 47.0323 7.67094 47.4781 8.2649L47.5031 8.29855L46.8486 8.6765L46.825 8.64741ZM49.0062 9.38423C49.0062 8.51413 49.6067 8.1251 50.2019 8.1251C50.9855 8.1251 51.3198 8.52108 51.3198 9.44936V11.5402H52.105V9.48539C52.105 8.06388 51.516 7.40132 50.2485 7.40132C49.7356 7.40132 49.2404 7.61277 49.0062 7.8355V6.29698H48.2209V11.5404H49.0062V9.38423ZM14.9359 5.9998C14.8949 6.43789 14.5771 6.78719 14.1113 6.77655C13.6455 6.76591 13.396 6.40554 13.437 5.96746C13.478 5.52937 13.814 5.00596 14.2793 5.0166C14.7446 5.02724 14.9769 5.56193 14.9359 5.9998Z" fill="white"/>
<path d="M78.1133 12.0469C78.4609 12.0469 78.7422 11.7656 78.7422 11.418C78.7422 11.0664 78.4609 10.7891 78.1133 10.7891C77.7617 10.7891 77.4844 11.0664 77.4844 11.418C77.4844 11.7656 77.7617 12.0469 78.1133 12.0469ZM81.9922 12V9.78125H84.2852V8.84766H81.9922V7.33594H84.5039V6.36328H80.8125V12H81.9922ZM88.5039 12H89.7578L87.7969 6.36328H86.4102L84.4531 12H85.6641L86.0938 10.6328H88.0742L88.5039 12ZM87.0703 7.44141H87.0977L87.8203 9.75H86.3477L87.0703 7.44141ZM96.3047 12V6.36328H94.9375L93.3359 10.4102H93.3047L91.7031 6.36328H90.3359V12H91.3867V8.19531H91.418L92.9492 12H93.6914L95.2227 8.19531H95.2539V12H96.3047ZM98.4219 12V6.36328H97.2422V12H98.4219ZM103.004 11.0234H100.539V6.36328H99.3594V12H103.004V11.0234ZM105.586 12V9.89453L107.551 6.36328H106.285L105.02 8.76953H104.992L103.73 6.36328H102.445L104.406 9.89453V12H105.586Z" fill="white"/>
</svg>
