<svg width="16" height="16" viewBox="0 0 16 16" fill="none" xmlns="http://www.w3.org/2000/svg">
<path fill-rule="evenodd" clip-rule="evenodd" d="M4 2.31885H11.9091C14.1684 2.31885 16 4.15041 16 6.40976V10.8943C16 13.1537 14.1684 14.9852 11.9091 14.9852H8.0488C7.2778 14.9852 6.61139 14.447 6.4491 13.6933L4 2.31885Z" fill="#EEEEEE"/>
<path d="M14.2191 7.28979C14.2555 7.28979 14.285 7.26004 14.285 7.22332V6.35902C14.285 6.32229 14.2555 6.29254 14.2191 6.29254H11.9665C11.9301 6.29254 11.9007 6.26279 11.9007 6.22607V5.60358C11.9007 5.56686 11.8712 5.53711 11.8348 5.53711H10.9788C10.9424 5.53711 10.9129 5.56686 10.9129 5.60358V6.22607C10.9129 6.26279 10.8835 6.29254 10.8471 6.29254H8.59446C8.55809 6.29254 8.52863 6.32229 8.52863 6.35902V7.22332C8.52863 7.26004 8.55809 7.28979 8.59446 7.28979H12.3009C12.3499 7.28979 12.3819 7.34191 12.3598 7.38605C12.1662 7.77182 11.8737 8.26733 11.4572 8.77097C11.431 8.80266 11.3821 8.80266 11.3559 8.77097C11.1013 8.46317 10.8931 8.15855 10.7259 7.8805C10.7071 7.84923 10.667 7.83903 10.6359 7.85775L9.90023 8.2997C9.86885 8.31854 9.85836 8.35949 9.87728 8.39101C10.0829 8.73361 10.3433 9.11192 10.6667 9.49259C10.6904 9.5205 10.6878 9.56264 10.6601 9.58649C10.1943 9.98791 9.63292 10.3564 8.96134 10.6334C8.92787 10.6472 8.91141 10.6854 8.92471 10.7193L9.24016 11.5228C9.25364 11.5571 9.29241 11.5741 9.32629 11.5601C10.067 11.2555 10.7524 10.8265 11.3625 10.2901C11.3873 10.2683 11.4238 10.2683 11.4486 10.2901C12.0002 10.7763 12.6729 11.2255 13.4873 11.5601C13.5212 11.574 13.56 11.5571 13.5735 11.5228L13.889 10.7193C13.9023 10.6854 13.8858 10.6472 13.8523 10.6334C13.1803 10.3562 12.6189 9.98752 12.1531 9.58627C12.1254 9.56242 12.1227 9.52047 12.1465 9.49259C12.3415 9.26355 12.5255 9.02147 12.6972 8.76688C13.0863 8.18979 13.3333 7.66837 13.4726 7.33081C13.4828 7.30603 13.5067 7.28979 13.5333 7.28979H14.2191Z" fill="#CCCCCC"/>
<path d="M10.2132 13.1128L7.63539 14.7668C7.18703 15.0544 6.5877 14.8437 6.418 14.3388L6.08002 13.3331L10.2132 13.1128Z" fill="#AAAAAA"/>
<path fill-rule="evenodd" clip-rule="evenodd" d="M0 4.75766C0 2.49831 1.83156 0.666748 4.09091 0.666748H6.86029C7.63129 0.666748 8.2977 1.20494 8.45999 1.95867L10.4826 11.3523C10.702 12.3714 9.92533 13.3331 8.88289 13.3331H4.09091C1.83156 13.3331 0 11.5016 0 9.24222V4.75766Z" fill="#CCCCCC"/>
<path fill-rule="evenodd" clip-rule="evenodd" d="M3.96881 8.3796L3.52935 9.79134H2.29089L4.2924 3.97095H5.71064L7.71614 9.79134H6.43374L5.99429 8.3796H3.96881ZM4.2285 7.46801H5.73462L4.99554 5.08419H4.96758L4.2285 7.46801Z" fill="white"/>
</svg>
