<svg width="22" height="22" viewBox="0 0 22 22" fill="none" xmlns="http://www.w3.org/2000/svg">
<path fill-rule="evenodd" clip-rule="evenodd" d="M13.4867 4.31543L4.85797 15.1078C4.74461 15.2493 4.70454 15.43 4.74511 15.6028C4.74509 15.6027 4.74514 15.603 4.74511 15.6028L5.32775 18.0689L7.92917 18.0362L7.93072 18.0362C8.12911 18.0341 8.30889 17.9444 8.42502 17.7998C8.42489 17.8 8.42514 17.7997 8.42502 17.7998L9.78624 16.097C10.6034 15.0747 11.6933 13.711 12.7841 12.3459C13.875 10.9807 14.9667 9.61406 15.7876 8.58564C16.1982 8.07139 16.5408 7.64191 16.7817 7.33952C16.9022 7.18826 16.997 7.06918 17.0619 6.98731L17.1279 6.90394C17.4122 6.41439 17.2583 5.78307 16.7491 5.47529C16.7186 5.45684 16.6892 5.43661 16.661 5.41473L15.8845 4.81144C15.4962 4.50971 15.0944 4.19748 15.0672 4.17602L15.0606 4.17079C14.5823 3.78673 13.8767 3.85664 13.4867 4.31543ZM17.7473 3.93707C19.0931 4.78689 19.5151 6.55614 18.6588 7.91476C18.6497 7.92885 18.6369 7.94785 18.6321 7.9547L18.6211 7.96995L18.6108 7.98381L18.5992 7.99879L18.5755 8.02907L18.498 8.12701C18.4319 8.21026 18.3363 8.33042 18.2156 8.4819C17.9741 8.785 17.631 9.21504 17.2205 9.72939C16.3992 10.7582 15.3073 12.1251 14.2164 13.4903C13.1254 14.8556 12.0355 16.2193 11.2183 17.2417L9.85701 18.9446C9.85695 18.9447 9.85662 18.9451 9.14063 18.3727L9.85701 18.9446L9.85587 18.946C9.39266 19.5239 8.69336 19.8609 7.95218 19.8694C7.95223 19.8694 7.95213 19.8694 7.95218 19.8694C7.95172 19.8694 7.9511 19.8694 7.95063 19.8694L4.61608 19.9113C4.18675 19.9167 3.8112 19.6233 3.71247 19.2055L2.96081 16.024C2.79097 15.3025 2.9612 14.5432 3.42709 13.9617C3.42695 13.9619 3.42722 13.9615 3.42709 13.9617L12.0621 3.16141L12.075 3.14559C13.1069 1.91235 14.9498 1.73452 16.2039 2.73759C16.2047 2.73824 16.2059 2.73912 16.2073 2.74027L17.7473 3.93707ZM17.1518 6.87358C17.1623 6.85951 17.1654 6.85617 17.1518 6.87358Z" fill="#F8F8F8"/>
<path fill-rule="evenodd" clip-rule="evenodd" d="M10.4384 5.19776C10.7468 4.79624 11.3222 4.72072 11.7238 5.02907L16.7216 8.86727C17.1232 9.17562 17.1987 9.75109 16.8903 10.1526C16.582 10.5541 16.0065 10.6297 15.605 10.3213L10.6071 6.4831C10.2056 6.17475 10.1301 5.59928 10.4384 5.19776Z" fill="#F8F8F8"/>
</svg>
