<svg width="16" height="16" viewBox="0 0 16 16" fill="none" xmlns="http://www.w3.org/2000/svg">
<path d="M12.8722 5.81431L7.0146 13.3893C6.74578 13.7333 6.34961 13.9268 5.92515 13.9339L3.5906 13.9626C3.46326 13.9626 3.35715 13.8766 3.32885 13.7548L2.79827 11.4543C2.7063 11.0315 2.79827 10.5944 3.0671 10.2575L7.21976 4.88267C7.2905 4.79667 7.41784 4.78305 7.50274 4.84684L9.25011 6.23713C9.3633 6.3303 9.51894 6.38046 9.68165 6.35897C10.0283 6.31597 10.2617 6.00064 10.2264 5.66382C10.2052 5.49182 10.1203 5.34849 10.0071 5.24099C9.9717 5.21233 8.30922 3.87936 8.30922 3.87936C8.2031 3.79336 8.18188 3.6357 8.26677 3.52892L8.92469 2.67539C9.53308 1.89424 10.5942 1.82258 11.4502 2.5034L12.4336 3.28454C12.8368 3.59987 13.1056 4.01552 13.1976 4.45268C13.3037 4.93355 13.1905 5.40582 12.8722 5.81431Z" fill="#111111"/>
</svg>
