<svg width="24" height="24" viewBox="0 0 24 24" fill="none" xmlns="http://www.w3.org/2000/svg">
<g id="icEffectFill">
<path id="Union" fill-rule="evenodd" clip-rule="evenodd" d="M22.6925 5.02966L21.4267 4.46748C21.0185 4.28612 20.6929 3.96348 20.5099 3.55897L19.9425 2.30467C19.8587 2.11932 19.6728 2 19.4679 2C19.2629 2 19.0769 2.11925 18.9932 2.30467L18.4259 3.55897C18.2428 3.96348 17.9172 4.28612 17.509 4.46748L16.2432 5.02966C16.0561 5.1127 15.9357 5.29695 15.9357 5.5C15.9357 5.70304 16.0561 5.88737 16.2432 5.97034L17.509 6.53252C17.9172 6.71388 18.2428 7.03652 18.4259 7.44103L18.9932 8.69533C19.077 8.88068 19.2629 9 19.4679 9C19.6728 9 19.8588 8.88075 19.9425 8.69533L20.5099 7.44103C20.6929 7.03652 21.0185 6.71388 21.4267 6.53252L22.6925 5.97034C22.8796 5.8873 23 5.70304 23 5.5C23 5.29695 22.8797 5.1127 22.6925 5.02966ZM13.5509 9.63995L16.4441 10.9249C16.8719 11.1147 17.1469 11.5359 17.1469 12C17.1469 12.4641 16.8717 12.8853 16.4441 13.0751L13.5509 14.36C12.6178 14.7746 11.8735 15.5121 11.4552 16.4366L10.1584 19.3036C9.967 19.7274 9.54184 20 9.07347 20C8.6051 20 8.18008 19.7273 7.98854 19.3036L6.69175 16.4366C6.27341 15.5121 5.52916 14.7746 4.59608 14.36L1.70279 13.0751C1.27508 12.8854 1 12.4641 1 12C1 11.5359 1.27524 11.1147 1.70279 10.9249L4.59608 9.63995C5.52916 9.22542 6.27341 8.48794 6.69175 7.56335L7.98854 4.6964C8.17993 4.27258 8.6051 4 9.07347 4C9.54184 4 9.96684 4.27273 10.1584 4.6964L11.4552 7.56335C11.8735 8.48794 12.6178 9.22542 13.5509 9.63995ZM20.8443 18.115L21.9293 18.5969C22.0897 18.668 22.1929 18.826 22.1929 19C22.1929 19.174 22.0896 19.332 21.9293 19.4031L20.8443 19.885C20.4944 20.0405 20.2153 20.317 20.0584 20.6637L19.5721 21.7389C19.5004 21.8978 19.3409 22 19.1653 22C18.9897 22 18.8303 21.8977 18.7585 21.7389L18.2722 20.6637C18.1153 20.317 17.8362 20.0405 17.4863 19.885L16.4013 19.4031C16.2409 19.332 16.1378 19.174 16.1378 19C16.1378 18.826 16.241 18.668 16.4013 18.5969L17.4863 18.115C17.8362 17.9595 18.1153 17.683 18.2722 17.3363L18.7585 16.2611C18.8302 16.1022 18.9897 16 19.1653 16C19.3409 16 19.5003 16.1023 19.5721 16.2611L20.0584 17.3363C20.2153 17.683 20.4944 17.9595 20.8443 18.115Z" fill="#F8F8F8"/>
</g>
</svg>
