<svg width="22" height="22" viewBox="0 0 22 22" fill="none" xmlns="http://www.w3.org/2000/svg">
<path d="M1.62451 5.91848C1.62451 3.54697 3.54726 1.6239 5.91818 1.6239H10.3869C12.7586 1.6239 14.6815 3.54681 14.6815 5.91848V6.77373C14.6815 7.28 14.2711 7.6904 13.7648 7.6904C13.2586 7.6904 12.8482 7.28 12.8482 6.77373V5.91848C12.8482 4.55933 11.7461 3.45723 10.3869 3.45723H5.91818C4.5601 3.45723 3.45785 4.55917 3.45785 5.91848V16.121C3.45785 17.4803 4.5601 18.5822 5.91818 18.5822H10.3961C11.7501 18.5822 12.8482 17.4844 12.8482 16.1311V15.2667C12.8482 14.7604 13.2586 14.35 13.7648 14.35C14.2711 14.35 14.6815 14.7604 14.6815 15.2667V16.1311C14.6815 18.4976 12.7619 20.4156 10.3961 20.4156H5.91818C3.54726 20.4156 1.62451 18.4925 1.62451 16.121V5.91848Z" fill="#F8F8F8"/>
<path d="M8.03797 11.0196C8.03797 10.5134 8.44837 10.103 8.95464 10.103H17.772L16.6612 8.99707C16.3024 8.63989 16.3011 8.05949 16.6583 7.70071C17.0155 7.34193 17.5959 7.34064 17.9547 7.69783L20.6279 10.3592C20.8011 10.526 20.9089 10.7602 20.9089 11.0196C20.9089 11.2813 20.7993 11.5173 20.6234 11.6843L17.9548 14.342C17.5961 14.6993 17.0157 14.6981 16.6584 14.3394C16.3012 13.9807 16.3024 13.4003 16.6611 13.043L17.7724 11.9363H8.95464C8.44837 11.9363 8.03797 11.5259 8.03797 11.0196Z" fill="#F8F8F8"/>
</svg>
