<svg width="25" height="24" viewBox="0 0 25 24" fill="none" xmlns="http://www.w3.org/2000/svg">
<path d="M19.4805 14.9346H15.5866V18.8169C15.5866 20.4368 14.29 21.75 12.6688 21.75C11.0484 21.75 9.75184 20.4368 9.75184 18.8169V14.9331H5.85933C4.23812 14.9331 2.91663 13.62 2.91663 11.9993C2.91663 10.3793 4.23592 9.06612 5.85713 9.06612H9.75184V5.18388C9.75184 3.56316 11.0484 2.25 12.6688 2.25C14.2908 2.25 15.5866 3.56316 15.5866 5.18388V9.06685H19.4805C21.1017 9.06685 22.4166 10.3807 22.4166 12.0007C22.4166 13.6215 21.1017 14.9346 19.4805 14.9346Z" fill="white"/>
</svg>
