<svg width="12" height="13" viewBox="0 0 12 13" fill="none" xmlns="http://www.w3.org/2000/svg">
<g clip-path="url(#clip0_18307_77792)">
<path fill-rule="evenodd" clip-rule="evenodd" d="M6 2C4.34315 2 3 3.34315 3 5C3 6.65685 4.34315 8 6 8C7.65685 8 9 6.65685 9 5C9 3.34315 7.65685 2 6 2ZM2 5C2 2.79086 3.79086 1 6 1C8.20914 1 10 2.79086 10 5C10 7.20914 8.20914 9 6 9C3.79086 9 2 7.20914 2 5Z" fill="#F8F8F8"/>
<path fill-rule="evenodd" clip-rule="evenodd" d="M6 8C6.27614 8 6.5 8.22386 6.5 8.5V11.75C6.5 12.0261 6.27614 12.25 6 12.25C5.72386 12.25 5.5 12.0261 5.5 11.75L5.5 8.5C5.5 8.22386 5.72386 8 6 8Z" fill="#F8F8F8"/>
<path fill-rule="evenodd" clip-rule="evenodd" d="M3.625 10.25C3.625 9.97386 3.84886 9.75 4.125 9.75H7.875C8.15114 9.75 8.375 9.97386 8.375 10.25C8.375 10.5261 8.15114 10.75 7.875 10.75H4.125C3.84886 10.75 3.625 10.5261 3.625 10.25Z" fill="#F8F8F8"/>
</g>
<defs>
<clipPath id="clip0_18307_77792">
<rect width="12" height="12" fill="white" transform="translate(0 0.5)"/>
</clipPath>
</defs>
</svg>
