<svg width="12" height="13" viewBox="0 0 12 13" fill="none" xmlns="http://www.w3.org/2000/svg">
<path fill-rule="evenodd" clip-rule="evenodd" d="M2.72927 9.89415C3.90084 11.0657 5.80033 11.0657 6.97191 9.89415C8.14348 8.72258 8.14348 6.82309 6.97191 5.65151C5.80033 4.47994 3.90084 4.47994 2.72927 5.65151C1.55769 6.82309 1.55769 8.72258 2.72927 9.89415ZM7.67901 10.6013C6.11692 12.1634 3.58426 12.1634 2.02216 10.6013C0.460062 9.03916 0.460062 6.5065 2.02216 4.94441C3.58426 3.38231 6.11692 3.38231 7.67901 4.94441C9.24111 6.5065 9.24111 9.03916 7.67901 10.6013Z" fill="#F8F8F8"/>
<path fill-rule="evenodd" clip-rule="evenodd" d="M6.97191 5.65151C6.77664 5.45625 6.77664 5.13967 6.97191 4.94441L9.09322 2.82309C9.28848 2.62783 9.60507 2.62783 9.80033 2.82309C9.99559 3.01835 9.99559 3.33494 9.80033 3.5302L7.67901 5.65151C7.48375 5.84678 7.16717 5.84678 6.97191 5.65151Z" fill="#F8F8F8"/>
<path fill-rule="evenodd" clip-rule="evenodd" d="M10.0478 5.96971C9.77445 6.00876 9.52119 5.81881 9.48214 5.54545L9.18162 3.4418L7.07797 3.14128C6.80461 3.10223 6.61466 2.84897 6.65371 2.5756C6.69276 2.30223 6.94603 2.11228 7.21939 2.15134L9.69427 2.50489C9.91426 2.53632 10.0871 2.70916 10.1185 2.92915L10.4721 5.40403C10.5111 5.67739 10.3212 5.93066 10.0478 5.96971Z" fill="#F8F8F8"/>
</svg>
