<svg width="22" height="22" viewBox="0 0 22 22" fill="none" xmlns="http://www.w3.org/2000/svg">
<path d="M18.7149 11.6784C18.5272 11.5631 18.3873 11.3841 18.3207 11.1742C18.2818 10.9994 18.2989 10.8167 18.3697 10.6522C18.4404 10.4876 18.5612 10.3495 18.7149 10.2575C19.3073 9.90975 19.7433 9.34751 19.9328 8.68717C20.1222 8.02683 20.0504 7.31894 19.7324 6.71003C19.7324 6.71003 19.1365 5.66503 19.1182 5.62836C18.9425 5.32249 18.7082 5.05436 18.4285 4.83938C18.1489 4.62439 17.8295 4.4668 17.4888 4.37565C17.148 4.2845 16.7927 4.2616 16.443 4.30826C16.0934 4.35491 15.7565 4.47021 15.4515 4.64753C15.3307 4.71716 15.1943 4.75538 15.0548 4.75869C14.9154 4.76199 14.7774 4.73027 14.6533 4.66644C14.5293 4.60261 14.4233 4.50869 14.3449 4.39329C14.2666 4.27789 14.2184 4.14468 14.2049 4.00586C14.2134 3.64933 14.1508 3.29466 14.0208 2.96257C13.8908 2.63047 13.696 2.32759 13.4477 2.0716C13.1994 1.81561 12.9026 1.61164 12.5746 1.47158C12.2466 1.33153 11.894 1.25819 11.5374 1.25586H10.4007C9.69716 1.26066 9.02379 1.54228 8.52629 2.03977C8.02879 2.53727 7.74718 3.21064 7.74238 3.91419C7.7377 4.13153 7.64928 4.33867 7.49556 4.49238C7.34185 4.6461 7.13471 4.73452 6.91738 4.73919C6.77706 4.73953 6.63983 4.69804 6.52321 4.62003C6.21884 4.44233 5.88238 4.3265 5.53313 4.27917C5.18388 4.23185 4.82873 4.25396 4.48805 4.34424C4.14737 4.43452 3.82787 4.59119 3.54789 4.80526C3.26791 5.01933 3.03297 5.28659 2.85654 5.59169L2.26988 6.60003C2.09096 6.90408 1.97413 7.24059 1.92615 7.5901C1.87817 7.93961 1.9 8.29516 1.99037 8.63618C2.08074 8.97719 2.23785 9.29689 2.45262 9.57677C2.66738 9.85665 2.93553 10.0912 3.24154 10.2667C3.36688 10.3415 3.47066 10.4476 3.54273 10.5745C3.61479 10.7014 3.65268 10.8449 3.65268 10.9909C3.65268 11.1368 3.61479 11.2803 3.54273 11.4072C3.47066 11.5342 3.36688 11.6402 3.24154 11.715C2.93553 11.8906 2.66738 12.1251 2.45262 12.4049C2.23785 12.6848 2.08074 13.0045 1.99037 13.3455C1.9 13.6866 1.87817 14.0421 1.92615 14.3916C1.97413 14.7411 2.09096 15.0776 2.26988 15.3817L2.83821 16.3625C3.01091 16.6713 3.24293 16.943 3.52094 17.1618C3.79894 17.3807 4.11745 17.5425 4.45817 17.6379C4.79889 17.7333 5.1551 17.7604 5.50634 17.7178C5.85758 17.6751 6.19692 17.5634 6.50488 17.3892C6.62874 17.3205 6.76805 17.2845 6.90968 17.2846C7.0513 17.2847 7.19058 17.3208 7.31438 17.3896C7.43818 17.4584 7.54243 17.5575 7.61731 17.6777C7.69219 17.798 7.73523 17.9353 7.74238 18.0767C7.74479 18.7834 8.02661 19.4605 8.52634 19.9602C9.02607 20.46 9.70315 20.7418 10.4099 20.7442H11.5649C12.2709 20.7394 12.9466 20.4568 13.4458 19.9576C13.945 19.4584 14.2276 18.7827 14.2324 18.0767C14.2323 17.8601 14.3164 17.652 14.4669 17.4964C14.6174 17.3407 14.8226 17.2497 15.039 17.2425C15.184 17.249 15.3254 17.2899 15.4515 17.3617C15.755 17.541 16.0911 17.6584 16.4402 17.707C16.7893 17.7556 17.1446 17.7346 17.4856 17.6451C17.8266 17.5556 18.1464 17.3994 18.4266 17.1856C18.7068 16.9717 18.9419 16.7044 19.1182 16.3992L19.7324 15.3817C19.9128 15.0727 20.0296 14.7308 20.076 14.3761C20.1225 14.0214 20.0976 13.6609 20.0028 13.316C19.908 12.971 19.7452 12.6484 19.5241 12.3672C19.3029 12.086 19.0278 11.8518 18.7149 11.6784ZM18.1099 14.4284L17.4957 15.4459C16.8724 16.4175 15.919 15.2992 15.0665 15.3909C14.3597 15.3956 13.683 15.6779 13.1824 16.1769C12.6817 16.6758 12.3971 17.3515 12.3899 18.0584C12.3899 18.2796 12.302 18.4918 12.1456 18.6482C11.9891 18.8046 11.7769 18.8925 11.5557 18.8925H10.4007C10.1786 18.8901 9.96648 18.8002 9.8103 18.6423C9.65412 18.4844 9.56653 18.2713 9.56654 18.0492C9.55223 17.352 9.26642 16.688 8.76994 16.1983C8.27346 15.7087 7.6055 15.4322 6.90821 15.4275C6.04654 15.2992 5.07488 16.4725 4.43321 15.4275L3.85571 14.4375C3.74575 14.2465 3.71584 14.0198 3.77252 13.8068C3.8292 13.5938 3.96786 13.4119 4.15821 13.3009C4.55076 13.0609 4.8751 12.7242 5.10013 12.3229C5.32516 11.9216 5.44334 11.4693 5.44334 11.0092C5.44334 10.5491 5.32516 10.0968 5.10013 9.69549C4.8751 9.29421 4.55076 8.95746 4.15821 8.71753C3.97053 8.60638 3.83323 8.42683 3.77511 8.2166C3.717 8.00636 3.7426 7.78179 3.84654 7.59003L4.46988 6.50836C4.57784 6.31734 4.75673 6.17655 4.96777 6.1165C5.17881 6.05645 5.40502 6.08197 5.59738 6.18753C6.00024 6.41491 6.45531 6.53361 6.91791 6.53198C7.38051 6.53035 7.83473 6.40845 8.23598 6.17824C8.63724 5.94802 8.97172 5.61742 9.2066 5.21888C9.44148 4.82035 9.56868 4.36758 9.57571 3.90503C9.5745 3.79592 9.59494 3.68765 9.63586 3.5865C9.67677 3.48534 9.73735 3.39331 9.81408 3.31573C9.89081 3.23815 9.98217 3.17656 10.0829 3.13452C10.1836 3.09249 10.2916 3.07085 10.4007 3.07086H11.5557C11.6721 3.07168 11.7871 3.09661 11.8934 3.14406C11.9998 3.19151 12.0951 3.26046 12.1735 3.34657C12.2518 3.43269 12.3115 3.53409 12.3488 3.6444C12.386 3.75471 12.4 3.87154 12.3899 3.98753C12.4071 4.44697 12.5423 4.89425 12.7825 5.28625C13.0228 5.67826 13.36 6.00176 13.7616 6.22559C14.1632 6.44942 14.6157 6.56603 15.0754 6.56418C15.5352 6.56233 15.9868 6.44208 16.3865 6.21503C16.5789 6.10462 16.8071 6.07447 17.0216 6.13109C17.236 6.18771 17.4195 6.32655 17.5324 6.51753L18.0549 7.43419C18.1205 7.52953 18.166 7.63723 18.1886 7.75072C18.2112 7.86422 18.2105 7.98113 18.1865 8.09434C18.1625 8.20755 18.1157 8.31468 18.0489 8.40922C17.9822 8.50375 17.8969 8.5837 17.7982 8.64419C17.2907 8.93822 16.8938 9.39081 16.6686 9.93237C16.4433 10.4739 16.4022 11.0745 16.5515 11.6417C16.6415 11.98 16.7982 12.297 17.0122 12.574C17.2263 12.8511 17.4935 13.0826 17.7982 13.255C17.9883 13.3663 18.1273 13.5475 18.1856 13.7599C18.2438 13.9723 18.2166 14.1991 18.1099 14.3917V14.4284Z" fill="#F8F8F8"/>
<path d="M10.9782 7.62669C10.0933 7.62669 9.24458 7.97823 8.61883 8.60398C7.99308 9.22973 7.64154 10.0784 7.64154 10.9634C7.64154 11.8483 7.99308 12.697 8.61883 13.3227C9.24458 13.9485 10.0933 14.3 10.9782 14.3C11.8631 14.3 12.7118 13.9485 13.3376 13.3227C13.9633 12.697 14.3149 11.8483 14.3149 10.9634C14.3149 10.0784 13.9633 9.22973 13.3376 8.60398C12.7118 7.97823 11.8631 7.62669 10.9782 7.62669ZM10.9782 12.4667C10.5795 12.4667 10.1971 12.3083 9.91519 12.0264C9.63326 11.7444 9.47488 11.3621 9.47488 10.9634C9.47488 10.5647 9.63326 10.1823 9.91519 9.90034C10.1971 9.61841 10.5795 9.46003 10.9782 9.46003C11.3769 9.46003 11.7593 9.61841 12.0412 9.90034C12.3232 10.1823 12.4815 10.5647 12.4815 10.9634C12.4815 11.3621 12.3232 11.7444 12.0412 12.0264C11.7593 12.3083 11.3769 12.4667 10.9782 12.4667Z" fill="#F8F8F8"/>
</svg>
