<svg width="22" height="22" viewBox="0 0 22 22" fill="none" xmlns="http://www.w3.org/2000/svg">
<path fill-rule="evenodd" clip-rule="evenodd" d="M5.85634 6.79062C5.85718 3.95824 8.1541 1.66321 10.9862 1.66321C13.819 1.66321 16.1152 3.95933 16.1152 6.79218C16.1152 9.62478 13.8193 11.922 10.9862 11.922H10.9565L10.9534 11.922C8.12958 11.9124 5.84761 9.61468 5.85634 6.79062ZM5.85634 6.79062C5.85635 6.79011 5.85635 6.78959 5.85635 6.78907L5.85634 6.79218C5.85634 6.79166 5.85634 6.79114 5.85634 6.79062ZM10.9862 3.49654C9.16561 3.49654 7.68968 4.9721 7.68968 6.79218V6.79528C7.68354 8.60749 9.14745 10.0818 10.9582 10.0887H10.9862C12.8063 10.0887 14.2818 8.61275 14.2818 6.79218C14.2818 4.97185 12.8065 3.49654 10.9862 3.49654ZM6.07883 13.7345C7.42653 13.2827 9.19411 13.1506 10.9862 13.1506C12.7895 13.1506 14.5578 13.2879 15.9041 13.7457C16.582 13.9763 17.2197 14.3099 17.6959 14.809C18.1931 15.3302 18.4749 15.9928 18.4749 16.7693C18.4749 17.5477 18.1904 18.2103 17.6901 18.7297C17.2116 19.2265 16.5716 19.5569 15.8932 19.7844C14.5457 20.2364 12.7784 20.3687 10.9862 20.3687C9.18301 20.3687 7.41441 20.2317 6.06798 19.774C5.38995 19.5435 4.75211 19.2099 4.27582 18.7107C3.7784 18.1894 3.49658 17.5268 3.49658 16.7501C3.49658 15.9714 3.78111 15.3087 4.28155 14.7892C4.76023 14.2923 5.40034 13.962 6.07883 13.7345ZM5.60187 16.0612C5.42384 16.246 5.32992 16.4554 5.32992 16.7501C5.32992 17.0467 5.42415 17.2585 5.60219 17.4451C5.80138 17.6538 6.13842 17.8615 6.65806 18.0382C7.70696 18.3948 9.22484 18.5354 10.9862 18.5354C12.7393 18.5354 14.258 18.3992 15.3102 18.0463C15.8317 17.8714 16.17 17.6652 16.3697 17.4578C16.5477 17.273 16.6416 17.0637 16.6416 16.7693C16.6416 16.4728 16.5474 16.2612 16.3694 16.0746C16.1703 15.8658 15.8333 15.6581 15.3138 15.4814C14.2651 15.1248 12.7474 14.9839 10.9862 14.9839C9.23295 14.9839 7.71405 15.1199 6.66162 15.4728C6.14004 15.6476 5.80166 15.8538 5.60187 16.0612Z" fill="white"/>
</svg>
