<svg width="24" height="24" viewBox="0 0 24 24" fill="none" xmlns="http://www.w3.org/2000/svg">
<path fill-rule="evenodd" clip-rule="evenodd" d="M1 7C1 3.68629 3.68629 1 7 1H17C20.3137 1 23 3.68629 23 7V17C23 20.3137 20.3137 23 17 23H7C3.68629 23 1 20.3137 1 17V7ZM12.9267 4.84127C12.0053 4.65799 11.0502 4.75206 10.1823 5.11157C9.3143 5.47109 8.57246 6.07991 8.05052 6.86104C7.52858 7.64218 7.25 8.56054 7.25 9.5C7.25 10.1904 7.80964 10.75 8.5 10.75C9.19036 10.75 9.75 10.1904 9.75 9.5C9.75 9.05499 9.88196 8.61998 10.1292 8.24997C10.3764 7.87996 10.7278 7.59157 11.139 7.42127C11.5501 7.25098 12.0025 7.20642 12.439 7.29323C12.8754 7.38005 13.2763 7.59434 13.591 7.90901C13.9057 8.22368 14.1199 8.62459 14.2068 9.06105C14.2936 9.49751 14.249 9.94991 14.0787 10.361C13.9084 10.7722 13.62 11.1236 13.25 11.3708C12.88 11.618 12.445 11.75 12 11.75C11.6685 11.75 11.3505 11.8817 11.1161 12.1161C10.8817 12.3505 10.75 12.6685 10.75 13V14C10.75 14.6904 11.3096 15.25 12 15.25C12.6624 15.25 13.2044 14.7348 13.2473 14.0833C13.7397 13.9493 14.21 13.7361 14.639 13.4495C15.4201 12.9275 16.0289 12.1857 16.3884 11.3177C16.7479 10.4498 16.842 9.49473 16.6587 8.57332C16.4754 7.65191 16.0231 6.80554 15.3588 6.14124C14.6945 5.47695 13.8481 5.02455 12.9267 4.84127ZM13.5 18C13.5 18.8284 12.8284 19.5 12 19.5C11.1716 19.5 10.5 18.8284 10.5 18C10.5 17.1716 11.1716 16.5 12 16.5C12.8284 16.5 13.5 17.1716 13.5 18Z" fill="white"/>
</svg>
