<svg width="20" height="20" viewBox="0 0 20 20" fill="none" xmlns="http://www.w3.org/2000/svg">
<path fill-rule="evenodd" clip-rule="evenodd" d="M6.24925 1H13.7493C16.6442 1 19 3.355 19 6.24925V13.7493C19 16.6442 16.645 19 13.7507 19H6.25075C3.35575 19 1 16.645 1 13.7507V6.25075C1 3.35575 3.355 1 6.24925 1ZM5.5 10C5.5 12.4818 7.51825 14.5 10 14.5C12.4818 14.5 14.5 12.4818 14.5 10C14.5 7.51825 12.4818 5.5 10 5.5C7.51825 5.5 5.5 7.51825 5.5 10ZM14.5 4.75C14.5 5.164 14.836 5.5 15.25 5.5C15.664 5.5 16 5.164 16 4.75C16 4.336 15.664 4 15.25 4C14.836 4 14.5 4.336 14.5 4.75ZM13 10C13 11.6569 11.6569 13 10 13C8.34315 13 7 11.6569 7 10C7 8.34315 8.34315 7 10 7C11.6569 7 13 8.34315 13 10Z" fill="#111111"/>
</svg>
