<svg width="20" height="20" viewBox="0 0 20 20" fill="none" xmlns="http://www.w3.org/2000/svg">
<path d="M19.5822 4.49844C19.3522 3.51496 18.6746 2.74054 17.814 2.47768C16.2542 2 10 2 10 2C10 2 3.74583 2 2.18598 2.47768C1.32559 2.74054 0.647814 3.51496 0.417852 4.49844C0 6.28094 0 10.0001 0 10.0001C0 10.0001 0 13.7192 0.417852 15.5016C0.647814 16.485 1.32559 17.2597 2.18598 17.5225C3.74583 18 10 18 10 18C10 18 16.2542 18 17.814 17.5225C18.6746 17.2597 19.3522 16.485 19.5822 15.5016C20 13.7192 20 10.0001 20 10.0001C20 10.0001 20 6.28094 19.5822 4.49844ZM7.9999 13.4287V6.57147L13.196 10.0001L7.9999 13.4287Z" fill="#111111"/>
</svg>
