<svg width="127" height="40" viewBox="0 0 127 40" fill="none" xmlns="http://www.w3.org/2000/svg">
<path d="M30.3315 0H9.57641C4.28751 0 0 4.29739 0 9.5985V30.4015C0 35.7026 4.28751 40 9.57641 40H30.3315C35.6204 40 39.908 35.7026 39.908 30.4015V9.5985C39.908 4.29739 35.6204 0 30.3315 0Z" fill="white"/>
<path d="M19.8766 32.6953C26.8493 32.6953 32.5018 27.0298 32.5018 20.041C32.5018 13.0522 26.8493 7.38672 19.8766 7.38672C12.9039 7.38672 7.25146 13.0522 7.25146 20.041C7.25146 27.0298 12.9039 32.6953 19.8766 32.6953Z" fill="#00FFAA"/>
<path d="M19.1718 15.9914C19.9018 15.9914 20.4936 15.3983 20.4936 14.6666C20.4936 13.9349 19.9018 13.3418 19.1718 13.3418C18.4419 13.3418 17.8501 13.9349 17.8501 14.6666C17.8501 15.3983 18.4419 15.9914 19.1718 15.9914Z" fill="black"/>
<path d="M25.794 14.0308C26.3832 13.9219 26.7661 13.3191 26.6494 12.6844C26.5326 12.0498 25.9603 11.6235 25.3711 11.7325C24.7819 11.8414 24.3989 12.4442 24.5157 13.0789C24.6325 13.7135 25.2048 14.1397 25.794 14.0308Z" fill="black"/>
<path d="M20.0753 18.2161C19.8919 18.1672 19.6967 18.1912 19.5305 18.2832C19.3644 18.3752 19.2402 18.5281 19.1838 18.7097C19.1271 18.897 19.1464 19.0991 19.2374 19.2723C19.3285 19.4454 19.4839 19.5756 19.6701 19.6346C20.0661 19.7538 20.4704 19.8436 20.8796 19.9033C21.2929 19.9601 21.7094 19.9914 22.1265 19.997C22.9578 20.0115 23.7863 19.8977 24.583 19.6596L24.8822 19.5658L25.0319 19.5034L25.1815 19.4471C25.3796 19.3614 25.5732 19.2655 25.7613 19.1597C25.9462 19.0504 26.1251 18.9315 26.2975 18.8035C26.468 18.6741 26.6305 18.5342 26.7838 18.3848C26.9369 18.2378 27.0806 18.0813 27.214 17.9161C27.3457 17.7477 27.4685 17.5725 27.5818 17.3912C27.8136 17.0226 27.9802 16.6167 28.0744 16.1914C28.09 16.0885 28.068 15.9834 28.0124 15.8956C27.9568 15.8077 27.8713 15.7429 27.7718 15.7132C27.6723 15.6835 27.5655 15.6909 27.471 15.734C27.3765 15.7771 27.3007 15.853 27.2576 15.9477V15.9477C27.1974 16.0974 27.1244 16.2417 27.0394 16.3789C26.9516 16.5196 26.8558 16.6552 26.7526 16.785C26.5369 17.0471 26.2945 17.2858 26.0294 17.4974C25.7681 17.7031 25.4835 17.8772 25.1815 18.0161C25.0327 18.0903 24.8785 18.153 24.7202 18.2036L24.6017 18.2411L24.4832 18.2785L24.2401 18.341C23.5634 18.4935 22.8691 18.5523 22.1764 18.516C21.8257 18.4992 21.476 18.4637 21.129 18.4098C20.7885 18.3589 20.4512 18.2879 20.119 18.1973L20.0753 18.2161Z" fill="black"/>
<path d="M36.1984 15.8532C36.09 15.4502 35.9241 15.0651 35.7059 14.7096C35.4925 14.3682 35.2392 14.0536 34.9515 13.7723C34.3993 13.2574 33.7677 12.8354 33.0811 12.5225C32.4475 12.2235 31.7881 11.9829 31.111 11.8038C30.4563 11.6336 29.7922 11.5022 29.1221 11.4102H29.0785C29.7699 12.1526 30.3706 12.9749 30.8678 13.8598C31.3229 13.9937 31.7669 14.1629 32.1958 14.366C32.6728 14.588 33.1124 14.8832 33.4988 15.2408C33.6659 15.4052 33.8143 15.5875 33.9415 15.7845C33.9976 15.8845 34.0537 15.9782 34.0974 16.0782C34.1382 16.1782 34.1736 16.2804 34.2033 16.3844C34.2573 16.5881 34.2825 16.7985 34.2781 17.0093C34.2718 17.1224 34.2593 17.235 34.2407 17.3467C34.2226 17.4653 34.1955 17.5823 34.1597 17.6967C34.0036 18.1991 33.7656 18.6721 33.4552 19.0964C33.162 19.5105 32.8323 19.8975 32.4701 20.2525L32.3329 20.39C31.461 21.211 30.5037 21.9358 29.4775 22.5522C28.4307 23.1857 27.3412 23.7453 26.2168 24.2269C25.6556 24.4706 25.0821 24.6956 24.5022 24.9081C23.9224 25.1205 23.3364 25.308 22.7441 25.4892C22.0084 25.7079 21.2664 25.9079 20.5183 26.0829L21.1418 25.508C21.2889 25.377 21.3782 25.1929 21.3899 24.996C21.4016 24.7991 21.3347 24.6056 21.2041 24.4581C21.0735 24.3106 20.8898 24.2212 20.6933 24.2094C20.4969 24.1977 20.3039 24.2647 20.1567 24.3956L17.2825 26.814C17.1843 26.8941 17.1073 26.9971 17.0581 27.114C17.0124 27.2148 16.9872 27.3237 16.9838 27.4344C16.9804 27.5451 16.999 27.6554 17.0384 27.7588C17.0779 27.8623 17.1374 27.9568 17.2135 28.0371C17.2897 28.1173 17.3809 28.1816 17.482 28.2263L20.8861 29.7385C21.0583 29.7947 21.245 29.7858 21.4111 29.7135C21.5772 29.6412 21.7111 29.5106 21.7878 29.3462C21.8644 29.1818 21.8785 28.995 21.8272 28.8209C21.776 28.6469 21.663 28.4976 21.5096 28.4013L20.7926 28.0263C22.9277 27.5673 25.0151 26.9083 27.0273 26.0579C28.2401 25.5463 29.4152 24.9491 30.5436 24.2706C30.8304 24.0957 31.111 23.9207 31.3853 23.7332C31.6596 23.5458 31.8529 23.4145 32.0836 23.2521L32.2082 23.1583C32.4763 22.9583 32.7444 22.7459 33.0001 22.5334C33.2557 22.3209 33.5175 22.0897 33.7669 21.846C34.2739 21.3646 34.7333 20.8351 35.1385 20.265C35.3494 19.9663 35.539 19.6531 35.7059 19.3277C35.8844 18.9889 36.0285 18.633 36.1361 18.2653C36.1921 18.0742 36.2378 17.8802 36.2732 17.6842C36.3054 17.4773 36.3241 17.2686 36.3294 17.0593C36.3442 16.653 36.3001 16.2468 36.1984 15.8532V15.8532Z" fill="black"/>
<path d="M5.39989 19.0786C4.92586 19.617 4.52157 20.2133 4.19661 20.8533C4.02838 21.196 3.89272 21.5538 3.79138 21.9219C3.68191 22.3084 3.62321 22.7075 3.61679 23.1092C3.61539 23.3183 3.62999 23.5272 3.66044 23.7341C3.67047 23.8372 3.68714 23.9394 3.71033 24.0403L3.74773 24.1965C3.75939 24.2473 3.77397 24.2974 3.79138 24.3465C3.85202 24.5432 3.93136 24.7336 4.0283 24.9152C4.12154 25.0944 4.2322 25.2639 4.35872 25.4213C4.48236 25.5774 4.61786 25.7236 4.76398 25.8588C4.9022 25.9881 5.04794 26.1092 5.20042 26.2212C5.49638 26.4388 5.82745 26.6037 6.17922 26.7087C6.2943 26.7456 6.41817 26.7448 6.53274 26.7062C6.6473 26.6677 6.74658 26.5935 6.81616 26.4945C6.88573 26.3955 6.92197 26.2768 6.91955 26.1557C6.91712 26.0346 6.87617 25.9174 6.80268 25.8213V25.8213C6.62188 25.5713 6.4411 25.3526 6.279 25.1339C6.12803 24.9402 5.99842 24.7307 5.89245 24.509L5.86129 24.4277C5.85873 24.4007 5.85873 24.3735 5.86129 24.3465C5.86129 24.2903 5.81762 24.234 5.79892 24.184C5.78021 24.1341 5.7615 24.0778 5.74903 24.0216V23.9403V23.8591C5.69168 23.6451 5.66237 23.4245 5.66177 23.2029C5.67004 22.9663 5.7056 22.7315 5.76775 22.5031C5.83949 22.2575 5.93341 22.0191 6.04832 21.7907C6.30574 21.298 6.62187 20.8384 6.98975 20.4221C7.10821 20.2846 7.23289 20.1534 7.36382 20.0159C7.37026 19.0327 7.48951 18.0535 7.7192 17.0977C7.46981 17.2914 7.22042 17.4913 6.97727 17.7226C6.41716 18.1328 5.88976 18.5862 5.39989 19.0786V19.0786Z" fill="black"/>
<path d="M100.016 9.99805C98.5798 9.99697 97.1613 10.3171 95.8639 10.935C94.5666 11.553 93.423 12.4532 92.5167 13.5701C91.6104 14.6871 90.964 15.9926 90.6248 17.3916C90.2855 18.7906 90.2619 20.2478 90.5556 21.6571C90.8493 23.0664 91.453 24.3923 92.3226 25.5382C93.1923 26.684 94.306 27.621 95.5827 28.2809C96.8593 28.9408 98.2667 29.3069 99.7024 29.3526C101.138 29.3984 102.566 29.1225 103.882 28.5451L104.212 28.4014L104.405 28.6951C104.743 29.213 105.239 29.6078 105.818 29.8208C106.398 30.0338 107.031 30.0537 107.622 29.8775C108.214 29.7014 108.733 29.3385 109.103 28.8429C109.473 28.3473 109.673 27.7454 109.674 27.1266V19.6778C109.68 19.58 109.68 19.4819 109.674 19.3841C109.604 16.8693 108.556 14.4816 106.754 12.7303C104.952 10.9791 102.539 10.0031 100.029 10.0106L100.016 9.99805ZM100.029 23.6209C99.2528 23.6222 98.494 23.3927 97.8483 22.9615C97.2025 22.5304 96.699 21.9169 96.4012 21.1988C96.1034 20.4807 96.0248 19.6902 96.1754 18.9273C96.3261 18.1644 96.6991 17.4635 97.2473 16.9131C97.7954 16.3628 98.4942 15.9878 99.2551 15.8356C100.016 15.6835 100.805 15.7609 101.522 16.0583C102.239 16.3556 102.852 16.8594 103.283 17.5059C103.714 18.1524 103.944 18.9126 103.944 19.6903C103.944 20.7317 103.532 21.7305 102.798 22.4675C102.064 23.2044 101.068 23.6193 100.029 23.6209" fill="white"/>
<path d="M59.5465 9.99805C58.1101 9.99697 56.6916 10.3171 55.3942 10.935C54.0968 11.553 52.9533 12.4532 52.047 13.5701C51.1407 14.6871 50.4943 15.9926 50.1551 17.3916C49.8158 18.7906 49.7922 20.2478 50.0859 21.6571C50.3796 23.0664 50.9833 24.3923 51.8529 25.5382C52.7226 26.684 53.8363 27.621 55.1129 28.2809C56.3896 28.9408 57.797 29.3069 59.2327 29.3526C60.6684 29.3984 62.0962 29.1225 63.412 28.5451L63.7362 28.4014L63.9295 28.6951C64.2662 29.2158 64.7621 29.6134 65.3429 29.8283C65.9237 30.0432 66.5583 30.0639 67.1518 29.8874C67.7454 29.7109 68.266 29.3466 68.6359 28.849C69.0057 28.3514 69.2051 27.7472 69.204 27.1266V19.6778C69.2102 19.58 69.2102 19.4819 69.204 19.3841C69.1341 16.8704 68.0872 14.4836 66.2866 12.7325C64.486 10.9814 62.0741 10.0047 59.5652 10.0106L59.5465 9.99805ZM59.5652 23.6209C58.7893 23.6222 58.0305 23.3927 57.3848 22.9615C56.7391 22.5304 56.2355 21.9169 55.9377 21.1988C55.6399 20.4807 55.5614 19.6902 55.712 18.9273C55.8626 18.1644 56.2356 17.4635 56.7838 16.9131C57.332 16.3628 58.0307 15.9878 58.7916 15.8356C59.5525 15.6835 60.3413 15.7609 61.0583 16.0583C61.7752 16.3556 62.388 16.8594 62.8192 17.5059C63.2504 18.1524 63.4806 18.9126 63.4806 19.6903C63.4806 20.7317 63.0683 21.7305 62.3342 22.4675C61.6001 23.2044 60.6042 23.6193 59.5652 23.6209" fill="white"/>
<path d="M86.7733 24.3342H80.6945L88.4816 15.3293C88.8367 14.9194 89.0667 14.4158 89.1442 13.8785C89.2217 13.3412 89.1434 12.7929 88.9187 12.2989C88.694 11.8049 88.3323 11.3862 87.8767 11.0925C87.4212 10.7988 86.891 10.6426 86.3493 10.6426H74.7279C74.001 10.6768 73.3152 10.9903 72.8128 11.518C72.3105 12.0458 72.0302 12.7471 72.0302 13.4765C72.0302 14.2059 72.3105 14.9073 72.8128 15.435C73.3152 15.9627 74.001 16.2762 74.7279 16.3104H80.1521L72.365 25.309C72.0103 25.7201 71.7808 26.2246 71.7039 26.7626C71.627 27.3005 71.7059 27.8493 71.9311 28.3437C72.1564 28.838 72.5186 29.2571 72.9746 29.5511C73.4306 29.8451 73.9613 30.0016 74.5035 30.0021H86.7733C87.5002 29.9678 88.186 29.6543 88.6884 29.1266C89.1907 28.5989 89.471 27.8975 89.471 27.1681C89.471 26.4387 89.1907 25.7374 88.6884 25.2097C88.186 24.6819 87.5002 24.3684 86.7733 24.3342" fill="white"/>
<path d="M123.951 10.086H122.935C121.597 10.0835 120.271 10.3454 119.034 10.8566C117.796 11.3679 116.672 12.1185 115.724 13.0656C114.776 14.0127 114.024 15.1377 113.51 16.3763C112.996 17.6149 112.731 18.9429 112.729 20.2844V26.9458C112.729 27.7562 113.05 28.5335 113.622 29.1066C114.194 29.6796 114.969 30.0016 115.778 30.0016C116.586 30.0016 117.362 29.6796 117.934 29.1066C118.505 28.5335 118.827 27.7562 118.827 26.9458V20.2844C118.827 19.2005 119.256 18.161 120.021 17.3945C120.785 16.6281 121.822 16.1975 122.904 16.1975H123.951C124.76 16.1975 125.535 15.8756 126.107 15.3025C126.679 14.7294 127 13.9522 127 13.1417C127 12.3313 126.679 11.554 126.107 10.981C125.535 10.4079 124.76 10.086 123.951 10.086" fill="white"/>
<path d="M100.016 9.99805C98.5797 9.9979 97.1617 10.3188 95.8649 10.9374C94.5681 11.5559 93.4252 12.4566 92.5196 13.5738C91.614 14.691 90.9684 15.9965 90.6297 17.3954C90.2911 18.7943 90.268 20.2512 90.5621 21.6602C90.8562 23.0691 91.4602 24.3946 92.3299 25.54C93.1997 26.6855 94.3134 27.6221 95.5899 28.2816C96.8664 28.9412 98.2737 29.3071 99.7091 29.3527C101.145 29.3983 102.572 29.1224 103.888 28.5451L104.212 28.4014L104.405 28.6951C104.743 29.213 105.238 29.6078 105.818 29.8208C106.398 30.0338 107.03 30.0537 107.622 29.8775C108.214 29.7014 108.733 29.3385 109.103 28.8429C109.472 28.3473 109.672 27.7454 109.673 27.1266V19.6778C109.68 19.58 109.68 19.4819 109.673 19.3841C109.603 16.8693 108.556 14.4816 106.754 12.7303C104.952 10.9791 102.538 10.0031 100.028 10.0106L100.016 9.99805ZM100.028 23.6209C99.2527 23.6209 98.4946 23.3904 97.8497 22.9585C97.2047 22.5266 96.7021 21.9127 96.4053 21.1945C96.1085 20.4762 96.0308 19.6859 96.1821 18.9235C96.3334 18.161 96.7069 17.4606 97.2553 16.9109C97.8038 16.3612 98.5025 15.9869 99.2633 15.8352C100.024 15.6835 100.813 15.7613 101.529 16.0588C102.246 16.3563 102.858 16.8602 103.289 17.5065C103.72 18.1529 103.95 18.9129 103.95 19.6903C103.95 20.7328 103.537 21.7325 102.801 22.4697C102.066 23.2068 101.068 23.6209 100.028 23.6209Z" fill="white"/>
<path d="M86.7733 24.3342H80.6945L88.4816 15.3293C88.8367 14.9194 89.0667 14.4158 89.1442 13.8785C89.2217 13.3412 89.1434 12.7929 88.9187 12.2989C88.694 11.8049 88.3323 11.3862 87.8767 11.0925C87.4212 10.7988 86.891 10.6426 86.3493 10.6426H74.7279C74.001 10.6768 73.3152 10.9903 72.8128 11.518C72.3105 12.0458 72.0302 12.7471 72.0302 13.4765C72.0302 14.2059 72.3105 14.9073 72.8128 15.435C73.3152 15.9627 74.001 16.2762 74.7279 16.3104H80.1521L72.365 25.309C72.0103 25.7201 71.7808 26.2246 71.7039 26.7626C71.627 27.3005 71.7059 27.8493 71.9311 28.3437C72.1564 28.838 72.5186 29.2571 72.9746 29.5511C73.4306 29.8451 73.9613 30.0016 74.5035 30.0021H86.7733C87.5002 29.9678 88.186 29.6543 88.6884 29.1266C89.1907 28.5989 89.471 27.8975 89.471 27.1681C89.471 26.4387 89.1907 25.7374 88.6884 25.2097C88.186 24.6819 87.5002 24.3684 86.7733 24.3342" fill="white"/>
<path d="M123.951 10.086H122.935C121.597 10.0835 120.271 10.3454 119.034 10.8566C117.796 11.3679 116.672 12.1185 115.724 13.0656C114.776 14.0127 114.024 15.1377 113.51 16.3763C112.996 17.6149 112.731 18.9429 112.729 20.2844V26.9458C112.729 27.7562 113.05 28.5335 113.622 29.1066C114.194 29.6796 114.969 30.0016 115.778 30.0016C116.586 30.0016 117.362 29.6796 117.934 29.1066C118.505 28.5335 118.827 27.7562 118.827 26.9458V20.2844C118.827 19.2005 119.256 18.161 120.021 17.3945C120.785 16.6281 121.822 16.1975 122.904 16.1975H123.951C124.76 16.1975 125.535 15.8756 126.107 15.3025C126.679 14.7294 127 13.9522 127 13.1417C127 12.3313 126.679 11.554 126.107 10.981C125.535 10.4079 124.76 10.086 123.951 10.086" fill="white"/>
</svg>
