<svg width="14" height="14" viewBox="0 0 14 14" fill="none" xmlns="http://www.w3.org/2000/svg">
<g id="icCloseBold">
<g id="Vector">
<path fill-rule="evenodd" clip-rule="evenodd" d="M11.5989 2.40107C11.8837 2.68583 11.8837 3.14751 11.5989 3.43227L3.43227 11.5989C3.14751 11.8837 2.68583 11.8837 2.40107 11.5989C2.11631 11.3142 2.11631 10.8525 2.40107 10.5677L10.5677 2.40107C10.8525 2.11631 11.3142 2.11631 11.5989 2.40107Z" fill="white"/>
<path fill-rule="evenodd" clip-rule="evenodd" d="M2.40107 2.40107C2.68583 2.11631 3.14751 2.11631 3.43227 2.40107L11.5989 10.5677C11.8837 10.8525 11.8837 11.3142 11.5989 11.5989C11.3142 11.8837 10.8525 11.8837 10.5677 11.5989L2.40107 3.43227C2.11631 3.14751 2.11631 2.68583 2.40107 2.40107Z" fill="white"/>
</g>
</g>
</svg>
