<svg width="512" height="512" viewBox="0 0 512 512" fill="none" xmlns="http://www.w3.org/2000/svg">
<path d="M191.906 229C210.254 229 221.812 241.332 221.812 261.098C221.812 280.82 210.254 293.152 191.906 293.152C173.516 293.152 162 280.82 162 261.098C162 241.332 173.516 229 191.906 229ZM191.906 239.828C181.766 239.828 175.234 248.078 175.234 261.098C175.234 274.074 181.723 282.281 191.906 282.281C202.047 282.281 208.535 274.074 208.535 261.098C208.535 248.078 202.047 239.828 191.906 239.828Z" fill="#1ED760"/>
<path d="M229.117 292.078V246.016H241.234V254.352H241.492C243.426 248.809 248.367 245.156 254.641 245.156C261.301 245.156 265.941 248.594 267.488 254.609H267.746C269.809 248.809 275.309 245.156 282.055 245.156C291.078 245.156 297.137 251.344 297.137 260.625V292.078H284.59V263.762C284.59 258.434 281.926 255.512 277.07 255.512C272.301 255.512 269.164 258.992 269.164 264.105V292.078H257.09V263.375C257.09 258.434 254.297 255.512 249.656 255.512C244.887 255.512 241.664 259.121 241.664 264.277V292.078H229.117Z" fill="#1ED760"/>
<path d="M325.754 254.309C320.254 254.309 316.301 258.477 315.871 264.234H335.422C335.164 258.348 331.34 254.309 325.754 254.309ZM335.594 277.984H347.109C345.734 287.008 337.484 293.066 326.098 293.066C311.918 293.066 303.41 284 303.41 269.262C303.41 254.566 312.004 245.027 325.625 245.027C339.031 245.027 347.496 254.094 347.496 268.102V271.926H315.742V272.699C315.742 279.273 319.91 283.785 326.312 283.785C330.91 283.785 334.434 281.508 335.594 277.984Z" fill="#1ED760"/>
<path d="M375.254 282.281C381.527 282.281 385.523 277.297 385.523 268.961C385.523 260.668 381.527 255.34 375.254 255.34C369.066 255.34 365.156 260.582 365.156 268.961C365.156 277.383 369.023 282.281 375.254 282.281ZM375.039 309.438C362.922 309.438 354.715 303.551 353.727 295.344H366.016C367.004 298.523 370.613 300.715 375.383 300.715C381.871 300.715 385.48 297.105 385.48 291.777V283.699H385.223C383.074 288.598 377.66 291.949 371 291.949C359.742 291.949 352.309 283.27 352.309 268.875C352.309 254.266 359.527 245.285 371.215 245.285C377.832 245.285 383.031 248.766 385.438 254.051H385.652V246.016H398.027V291.434C398.027 302.434 388.832 309.438 375.039 309.438Z" fill="#1ED760"/>
<path d="M406.535 292.078V230.074H419.082V292.078H406.535Z" fill="#1ED760"/>
<path d="M433.434 309.137C433.004 309.137 429.094 309.094 428.707 309.008V299.34C429.094 299.426 431.371 299.426 431.844 299.426C436.441 299.426 438.719 297.965 439.578 294.312C439.578 294.141 440.051 292.293 439.965 292.121L423.938 246.016H437.73L447.527 282.023H447.742L457.539 246.016H470.773L454.918 293.109C450.965 304.926 445.207 309.137 433.434 309.137Z" fill="#1ED760"/>
<path d="M69.3333 289.297L79.5765 279.754L79.5765 279.754L69.3333 289.297ZM115 309L127.046 316.133C123.833 321.561 117.386 324.169 111.302 322.503C105.218 320.837 101 315.308 101 309H115ZM101.707 195.725C106.277 189.488 115.038 188.137 121.275 192.707C127.512 197.277 128.863 206.038 124.293 212.275L101.707 195.725ZM79.3307 215.463C76.4646 208.282 79.9626 200.137 87.1438 197.271C94.325 194.405 102.47 197.903 105.336 205.084L79.3307 215.463ZM123 263.104C123 249.625 111.933 238.472 98 238.472V210.472C127.146 210.472 151 233.911 151 263.104H123ZM98 238.472C84.0675 238.472 73 249.625 73 263.104H45C45 233.911 68.8543 210.472 98 210.472V238.472ZM73 263.104C73 269.515 75.4689 275.345 79.5765 279.754L59.0901 298.841C50.3685 289.48 45 276.908 45 263.104H73ZM79.5765 279.754C84.1495 284.662 90.6874 287.736 98 287.736V315.736C82.6423 315.736 68.7687 309.229 59.0901 298.841L79.5765 279.754ZM98 287.736C101.954 287.736 105.653 286.841 108.936 285.264L121.064 310.501C114.071 313.861 106.235 315.736 98 315.736V287.736ZM129 297.882V309H101V297.882H129ZM108.936 285.264C111.77 283.902 114.309 282.024 116.423 279.754L136.91 298.841C132.435 303.644 127.067 307.616 121.064 310.501L108.936 285.264ZM116.423 279.754C120.531 275.345 123 269.515 123 263.104H151C151 276.908 145.631 289.48 136.91 298.841L116.423 279.754ZM102.954 301.867L114.62 282.164L138.713 296.431L127.046 316.133L102.954 301.867ZM86.707 216.197L101.707 195.725L124.293 212.275L109.293 232.746L86.707 216.197ZM84.9974 229.661L79.3307 215.463L105.336 205.084L111.003 219.282L84.9974 229.661Z" fill="#1ED760"/>
</svg>
