<svg width="426" height="133" viewBox="0 0 426 133" fill="none" xmlns="http://www.w3.org/2000/svg">
<path d="M146.906 39C165.254 39 176.812 51.332 176.812 71.0977C176.812 90.8203 165.254 103.152 146.906 103.152C128.516 103.152 117 90.8203 117 71.0977C117 51.332 128.516 39 146.906 39ZM146.906 49.8281C136.766 49.8281 130.234 58.0781 130.234 71.0977C130.234 84.0742 136.723 92.2812 146.906 92.2812C157.047 92.2812 163.535 84.0742 163.535 71.0977C163.535 58.0781 157.047 49.8281 146.906 49.8281Z" fill="#1ED760"/>
<path d="M184.117 102.078V56.0156H196.234V64.3516H196.492C198.426 58.8086 203.367 55.1562 209.641 55.1562C216.301 55.1562 220.941 58.5938 222.488 64.6094H222.746C224.809 58.8086 230.309 55.1562 237.055 55.1562C246.078 55.1562 252.137 61.3438 252.137 70.625V102.078H239.59V73.7617C239.59 68.4336 236.926 65.5117 232.07 65.5117C227.301 65.5117 224.164 68.9922 224.164 74.1055V102.078H212.09V73.375C212.09 68.4336 209.297 65.5117 204.656 65.5117C199.887 65.5117 196.664 69.1211 196.664 74.2773V102.078H184.117Z" fill="#1ED760"/>
<path d="M280.754 64.3086C275.254 64.3086 271.301 68.4766 270.871 74.2344H290.422C290.164 68.3477 286.34 64.3086 280.754 64.3086ZM290.594 87.9844H302.109C300.734 97.0078 292.484 103.066 281.098 103.066C266.918 103.066 258.41 94 258.41 79.2617C258.41 64.5664 267.004 55.0273 280.625 55.0273C294.031 55.0273 302.496 64.0938 302.496 78.1016V81.9258H270.742V82.6992C270.742 89.2734 274.91 93.7852 281.312 93.7852C285.91 93.7852 289.434 91.5078 290.594 87.9844Z" fill="#1ED760"/>
<path d="M330.254 92.2812C336.527 92.2812 340.523 87.2969 340.523 78.9609C340.523 70.668 336.527 65.3398 330.254 65.3398C324.066 65.3398 320.156 70.582 320.156 78.9609C320.156 87.3828 324.023 92.2812 330.254 92.2812ZM330.039 119.438C317.922 119.438 309.715 113.551 308.727 105.344H321.016C322.004 108.523 325.613 110.715 330.383 110.715C336.871 110.715 340.48 107.105 340.48 101.777V93.6992H340.223C338.074 98.5977 332.66 101.949 326 101.949C314.742 101.949 307.309 93.2695 307.309 78.875C307.309 64.2656 314.527 55.2852 326.215 55.2852C332.832 55.2852 338.031 58.7656 340.438 64.0508H340.652V56.0156H353.027V101.434C353.027 112.434 343.832 119.438 330.039 119.438Z" fill="#1ED760"/>
<path d="M361.535 102.078V40.0742H374.082V102.078H361.535Z" fill="#1ED760"/>
<path d="M388.434 119.137C388.004 119.137 384.094 119.094 383.707 119.008V109.34C384.094 109.426 386.371 109.426 386.844 109.426C391.441 109.426 393.719 107.965 394.578 104.312C394.578 104.141 395.051 102.293 394.965 102.121L378.938 56.0156H392.73L402.527 92.0234H402.742L412.539 56.0156H425.773L409.918 103.109C405.965 114.926 400.207 119.137 388.434 119.137Z" fill="#1ED760"/>
<path d="M24.3333 99.2974L34.5765 89.754L34.5765 89.754L24.3333 99.2974ZM70 119L82.0465 126.133C78.8326 131.561 72.3859 134.169 66.3021 132.503C60.2183 130.837 56 125.308 56 119H70ZM56.707 5.72542C61.2769 -0.511518 70.0376 -1.8629 76.2746 2.70702C82.5115 7.27695 83.8629 16.0376 79.293 22.2746L56.707 5.72542ZM34.3307 25.4631C31.4646 18.282 34.9626 10.137 42.1438 7.27094C49.325 4.40484 57.4699 7.90289 60.336 15.084L34.3307 25.4631ZM78 73.1038C78 59.6247 66.9325 48.4717 53 48.4717V20.4717C82.1457 20.4717 106 43.9111 106 73.1038H78ZM53 48.4717C39.0675 48.4717 28 59.6247 28 73.1038H-2.32458e-06C-2.32458e-06 43.9111 23.8543 20.4717 53 20.4717V48.4717ZM28 73.1038C28 79.5152 30.4689 85.3452 34.5765 89.754L14.0901 108.841C5.36854 99.4797 -2.32458e-06 86.9077 -2.32458e-06 73.1038H28ZM34.5765 89.754C39.1495 94.6622 45.6874 97.7359 53 97.7359V125.736C37.6423 125.736 23.7687 119.229 14.0901 108.841L34.5765 89.754ZM53 97.7359C56.9538 97.7359 60.6529 96.8413 63.9365 95.2635L76.0635 120.501C69.0709 123.861 61.2346 125.736 53 125.736V97.7359ZM84 107.882V119H56V107.882H84ZM63.9365 95.2635C66.7703 93.9018 69.3089 92.0237 71.4235 89.754L91.9099 108.841C87.4351 113.644 82.0673 117.616 76.0635 120.501L63.9365 95.2635ZM71.4235 89.754C75.5311 85.3452 78 79.5152 78 73.1038H106C106 86.9077 100.631 99.4797 91.9099 108.841L71.4235 89.754ZM57.9535 111.867L69.6202 92.1642L93.7131 106.431L82.0465 126.133L57.9535 111.867ZM41.707 26.1971L56.707 5.72542L79.293 22.2746L64.293 42.7463L41.707 26.1971ZM39.9974 39.6612L34.3307 25.4631L60.336 15.084L66.0026 29.2822L39.9974 39.6612Z" fill="#1ED760"/>
</svg>
