<svg width="20" height="20" viewBox="0 0 20 20" fill="none" xmlns="http://www.w3.org/2000/svg">
<path fill-rule="evenodd" clip-rule="evenodd" d="M1.6665 10.0125C1.6665 5.62262 5.17484 1.66669 10.0165 1.66669C14.7498 1.66669 18.3332 5.54751 18.3332 9.9875C18.3332 15.1369 14.1332 18.3334 9.99984 18.3334C8.63317 18.3334 7.1165 17.9661 5.89984 17.2484C5.47484 16.9897 5.1165 16.7977 4.65817 16.9479L2.97484 17.4487C2.54984 17.5822 2.1665 17.2484 2.2915 16.7977L2.84984 14.9282C2.9415 14.6695 2.92484 14.3941 2.7915 14.1771C2.07484 12.8585 1.6665 11.4146 1.6665 10.0125ZM8.9165 10.0125C8.9165 10.6051 9.3915 11.0808 9.98317 11.0892C10.5748 11.0892 11.0498 10.6051 11.0498 10.0209C11.0498 9.42833 10.5748 8.95262 9.98317 8.95262C9.39984 8.94427 8.9165 9.42833 8.9165 10.0125ZM12.7582 10.0209C12.7582 10.6051 13.2332 11.0892 13.8248 11.0892C14.4165 11.0892 14.8915 10.6051 14.8915 10.0209C14.8915 9.42833 14.4165 8.95262 13.8248 8.95262C13.2332 8.95262 12.7582 9.42833 12.7582 10.0209ZM6.1415 11.0892C5.55817 11.0892 5.07484 10.6051 5.07484 10.0209C5.07484 9.42833 5.54984 8.95262 6.1415 8.95262C6.73317 8.95262 7.20817 9.42833 7.20817 10.0209C7.20817 10.6051 6.73317 11.0808 6.1415 11.0892Z" fill="#F8F8F8"/>
</svg>
