<svg width="24" height="24" viewBox="0 0 24 24" fill="none" xmlns="http://www.w3.org/2000/svg">
<path fill-rule="evenodd" clip-rule="evenodd" d="M2.91789 2.91789C4.32218 1.5136 6.40137 1 9 1H15C17.5986 1 19.6778 1.5136 21.0821 2.91789C22.4864 4.32218 23 6.40137 23 9V15C23 17.5986 22.4864 19.6778 21.0821 21.0821C19.6778 22.4864 17.5986 23 15 23H9C6.40137 23 4.32218 22.4864 2.91789 21.0821C1.5136 19.6778 1 17.5986 1 15V9C1 6.40137 1.5136 4.32218 2.91789 2.91789ZM4.33211 4.33211C3.4864 5.17782 3 6.59863 3 9V15C3 17.4014 3.4864 18.8222 4.33211 19.6679C5.17782 20.5136 6.59863 21 9 21H15C17.4014 21 18.8222 20.5136 19.6679 19.6679C20.5136 18.8222 21 17.4014 21 15V9C21 6.59863 20.5136 5.17782 19.6679 4.33211C18.8222 3.4864 17.4014 3 15 3H9C6.59863 3 5.17782 3.4864 4.33211 4.33211Z" fill="white"/>
<path fill-rule="evenodd" clip-rule="evenodd" d="M18.7384 10.261C18.7384 10.8133 18.2907 11.261 17.7384 11.261H13.7384C13.1861 11.261 12.7384 10.8133 12.7384 10.261V6.261C12.7384 5.70872 13.1861 5.261 13.7384 5.261C14.2907 5.261 14.7384 5.70872 14.7384 6.261V9.26101H17.7384C18.2907 9.26101 18.7384 9.70872 18.7384 10.261Z" fill="white"/>
<path fill-rule="evenodd" clip-rule="evenodd" d="M18.6823 5.26847C19.0771 5.65466 19.0841 6.28778 18.6979 6.68259L14.4877 10.9866C14.1016 11.3815 13.4684 11.3884 13.0736 11.0022C12.6788 10.6161 12.6718 9.98292 13.058 9.58811L17.2681 5.28407C17.6543 4.88926 18.2875 4.88227 18.6823 5.26847Z" fill="white"/>
<path fill-rule="evenodd" clip-rule="evenodd" d="M5.26379 13.7359C5.26379 13.1836 5.71151 12.7359 6.26379 12.7359L10.2638 12.7359C10.8161 12.7359 11.2638 13.1836 11.2638 13.7359V17.7359C11.2638 18.2882 10.8161 18.7359 10.2638 18.7359C9.71151 18.7359 9.26379 18.2882 9.26379 17.7359V14.7359L6.26379 14.7359C5.71151 14.7359 5.26379 14.2882 5.26379 13.7359Z" fill="white"/>
<path fill-rule="evenodd" clip-rule="evenodd" d="M5.36235 18.7654C4.96644 18.3803 4.95766 17.7472 5.34273 17.3513L9.54061 13.0353C9.92568 12.6394 10.5588 12.6306 10.9547 13.0157C11.3506 13.4008 11.3594 14.0339 10.9743 14.4298L6.77642 18.7458C6.39136 19.1417 5.75825 19.1505 5.36235 18.7654Z" fill="white"/>
</svg>
