<svg width="20" height="20" viewBox="0 0 20 20" fill="none" xmlns="http://www.w3.org/2000/svg">
<g clip-path="url(#clip0_15016_420905)">
<path d="M4.16675 11.9076C4.16675 10.9872 4.91294 10.241 5.83341 10.241H13.8914C14.8119 10.241 15.5581 10.9872 15.5581 11.9076V15.8973C15.5581 16.8178 14.8119 17.564 13.8914 17.564H5.83341C4.91294 17.564 4.16675 16.8178 4.16675 15.8973V11.9076Z" fill="white"/>
<path d="M15.5581 7.32431C15.5581 8.24479 14.812 8.99098 13.8915 8.99098L5.83346 8.99098C4.91299 8.99098 4.1668 8.24478 4.1668 7.32431L4.1668 3.33464C4.1668 2.41416 4.91299 1.66797 5.83346 1.66797L13.8915 1.66797C14.812 1.66797 15.5581 2.41416 15.5581 3.33464L15.5581 7.32431Z" fill="white"/>
</g>
<defs>
<clipPath id="clip0_15016_420905">
<rect width="20" height="20" fill="white"/>
</clipPath>
</defs>
</svg>
